<svg width="24" height="24" viewBox="0 0 24 24" fill="none" xmlns="http://www.w3.org/2000/svg">
<path d="M12.25 2V6H13.75V2H12.25Z" fill="#F5F5F7"/>
<path d="M18 11.25V12.75H22V11.25H18Z" fill="#F5F5F7"/>
<path d="M17.47 6.29785L18.5306 7.3584L21.3587 4.53027L20.2982 3.46973L17.47 6.29785Z" fill="#F5F5F7"/>
<path d="M7.13923 20.7497C6.76823 21.1207 6.16644 21.1207 5.79545 20.7497L3.25014 18.2044C2.87914 17.8334 2.87914 17.2316 3.25014 16.8606L5.58345 14.5273L3.49597 12.4398C2.96919 11.913 3.22577 11.0122 3.95103 10.8426L14.4692 8.38983L14.5963 8.36912C15.1863 8.31138 15.6885 8.81353 15.6307 9.40354L15.61 9.53059L13.1572 20.0488C12.9876 20.7741 12.0868 21.0306 11.56 20.5039L9.47254 18.4164L7.13923 20.7497ZM4.69957 17.5325L6.46734 19.3003L8.80065 16.967C9.17165 16.596 9.77343 16.596 10.1444 16.967L11.9212 18.7437L13.9493 10.0506L5.25614 12.0787L7.03288 13.8554C7.40388 14.2264 7.40388 14.8282 7.03288 15.1992L4.69957 17.5325Z" fill="#F5F5F7"/>
</svg>
