<svg width="24" height="24" viewBox="0 0 24 24" fill="none" xmlns="http://www.w3.org/2000/svg">
<path d="M12.25 2V6H13.75V2H12.25Z" fill="#F5F5F7"/>
<path d="M18 11.25V12.75H22V11.25H18Z" fill="#F5F5F7"/>
<path d="M17.47 6.29785L18.5306 7.3584L21.3587 4.53027L20.2982 3.46973L17.47 6.29785Z" fill="#F5F5F7"/>
<path d="M7.1392 20.7497C6.7682 21.1207 6.16641 21.1207 5.79542 20.7497L3.25011 18.2044C2.87911 17.8334 2.87911 17.2316 3.25011 16.8606L5.58342 14.5273L3.49594 12.4398C2.96916 11.913 3.22573 11.0122 3.951 10.8426L14.4692 8.38983L14.5963 8.36912C15.1863 8.31138 15.6884 8.81353 15.6307 9.40354L15.61 9.53059L13.1572 20.0488C12.9876 20.7741 12.0868 21.0306 11.56 20.5039L9.47251 18.4164L7.1392 20.7497ZM4.69954 17.5325L6.46731 19.3003L8.80062 16.967C9.17162 16.596 9.7734 16.596 10.1444 16.967L11.9211 18.7437L13.9492 10.0506L5.25611 12.0787L7.03285 13.8554C7.40385 14.2264 7.40385 14.8282 7.03285 15.1992L4.69954 17.5325Z" fill="#F5F5F7"/>
</svg>
