<svg width="24" height="24" viewBox="0 0 24 24" fill="none" xmlns="http://www.w3.org/2000/svg">
<path d="M4.5 16.5H14.5V7.5H4.5V16.5ZM16 17.5C16 17.7761 15.7761 18 15.5 18H3.5C3.22386 18 3 17.7761 3 17.5V6.5C3 6.22386 3.22386 6 3.5 6H15.5C15.7761 6 16 6.22386 16 6.5V17.5Z" fill="#F5F5F7"/>
<path d="M10.25 9.5V14.5H8.75V9.5H10.25Z" fill="#F5F5F7"/>
<path d="M12 12.75L7 12.75L7 11.25L12 11.25L12 12.75Z" fill="#F5F5F7"/>
<path d="M15.0107 12.9172C14.4768 12.4258 14.4766 11.5736 15.0107 11.0823L15.1338 10.9827L20.0234 7.49047C20.8507 6.89962 21.9997 7.49061 22 8.50707L22 15.4924C22 16.5091 20.8508 17.1008 20.0234 16.51L15.1338 13.0168L15.0107 12.9172ZM20.5 15.0071L20.5 8.9934L16.29 12.0002L20.5 15.0071Z" fill="#F5F5F7"/>
</svg>
