<svg width="24" height="24" viewBox="0 0 24 24" fill="none" xmlns="http://www.w3.org/2000/svg">
<g clip-path="url(#clip0_1518_2290)">
<path d="M12.7076 5.14172L5.12135 12.7279L11.4853 19.0919L19.0715 11.5057L18.5819 5.63131L12.7076 5.14172ZM11.8389 20.8597L11.7608 20.9239C11.5944 21.0339 11.3762 21.0339 11.2098 20.9239L11.1318 20.8597L3.35358 13.0815C3.15832 12.8862 3.15832 12.5696 3.35358 12.3744L11.9742 3.75374C12.0782 3.64985 12.2227 3.59652 12.3692 3.60873L19.5487 4.20742C19.792 4.2277 19.9855 4.4212 20.0058 4.66456L20.6045 11.844C20.6167 11.9905 20.5634 12.135 20.4595 12.239L11.8389 20.8597Z" fill="#F5F5F7"/>
<rect x="13.9142" y="9" width="2" height="2" transform="rotate(45 13.9142 9)" fill="#F5F5F7"/>
</g>
<defs>
<clipPath id="clip0_1518_2290">
<rect width="24" height="24" fill="white" transform="matrix(-1 0 0 1 24 0)"/>
</clipPath>
</defs>
</svg>
