<svg width="24" height="24" viewBox="0 0 24 24" fill="none" xmlns="http://www.w3.org/2000/svg">
<path d="M5 19H19V14H5V19ZM20.5 20C20.5 20.2761 20.2761 20.5 20 20.5H4C3.72386 20.5 3.5 20.2761 3.5 20V13C3.5 12.7239 3.72386 12.5 4 12.5H20C20.2761 12.5 20.5 12.7239 20.5 13V20Z" fill="#F5F5F7"/>
<path d="M10 19L10 5L5 5L5 19L10 19ZM11 3.5C11.2761 3.5 11.5 3.72386 11.5 4L11.5 20C11.5 20.2761 11.2761 20.5 11 20.5L4 20.5C3.72386 20.5 3.5 20.2761 3.5 20L3.5 4C3.5 3.72386 3.72386 3.5 4 3.5L11 3.5Z" fill="#F5F5F7"/>
<path d="M15 19L15 9L5 9L5 19L15 19ZM16 7.5L16.1006 7.50977C16.2961 7.54966 16.4503 7.70392 16.4902 7.89941L16.5 8L16.5 20C16.5 20.2761 16.2761 20.5 16 20.5L4 20.5C3.75829 20.5 3.55629 20.3286 3.50977 20.1006L3.5 20L3.5 8L3.50977 7.89942C3.55629 7.67145 3.75829 7.5 4 7.5L16 7.5Z" fill="#F5F5F7"/>
</svg>
