<svg width="24" height="24" viewBox="0 0 24 24" fill="none" xmlns="http://www.w3.org/2000/svg">
<path d="M20.25 12C20.25 11.1945 19.5773 10.2637 18.0283 9.48926C16.5242 8.73722 14.3941 8.25 12 8.25C9.60592 8.25 7.47577 8.73722 5.97168 9.48926C4.42273 10.2637 3.75 11.1945 3.75 12C3.75 12.8055 4.42273 13.7363 5.97168 14.5107C7.47577 15.2628 9.60592 15.75 12 15.75V17.25C9.42354 17.25 7.05405 16.7292 5.30078 15.8525C3.59238 14.9983 2.25 13.6798 2.25 12C2.25 10.3202 3.59238 9.00167 5.30078 8.14746C7.05405 7.27083 9.42354 6.75 12 6.75C14.5765 6.75 16.946 7.27083 18.6992 8.14746C20.4076 9.00167 21.75 10.3202 21.75 12C21.75 13.2484 20.9976 14.3032 19.9414 15.0947C18.8789 15.8909 17.4201 16.4957 15.7598 16.8584L15.4395 15.3926C16.9574 15.061 18.1992 14.526 19.042 13.8945C19.8912 13.2582 20.25 12.5969 20.25 12Z" fill="#F5F5F7"/>
<path d="M14.2012 16.505C14.0655 16.9259 14.2782 17.3837 14.6876 17.5508L14.7782 17.582L17.9132 18.4707L18.3232 17.0277L15.9119 16.3442L16.9785 13.973L15.611 13.3583L14.2349 16.4156L14.2012 16.505Z" fill="#F5F5F7"/>
<path d="M17.5372 3.54683L7.64661 20.3795L6.35324 19.62L16.2438 2.78734L17.5372 3.54683Z" fill="#F5F5F7"/>
</svg>
