<svg width="24" height="24" viewBox="0 0 24 24" fill="none" xmlns="http://www.w3.org/2000/svg">
<path d="M13.5 3V9H12V3H13.5Z" fill="#F5F5F7"/>
<path d="M13.5 15V21H12V15H13.5Z" fill="#F5F5F7"/>
<path d="M9.95 9V15H8.45V9H9.95Z" fill="#F5F5F7"/>
<path d="M20 6.75H12V5.25L20 5.25V6.75Z" fill="#F5F5F7"/>
<path d="M20 18.5L12 18.5L12 17L20 17L20 18.5Z" fill="#F5F5F7"/>
<path d="M20 12.75H12V11.25H20V12.75Z" fill="#F5F5F7"/>
<path d="M10 6.75H4V5.25H10V6.75Z" fill="#F5F5F7"/>
<path d="M10 18.5H4V17H10V18.5Z" fill="#F5F5F7"/>
<path d="M9 12.75H4V11.25H9V12.75Z" fill="#F5F5F7"/>
</svg>
