<svg width="24" height="24" viewBox="0 0 24 24" fill="none" xmlns="http://www.w3.org/2000/svg">
<g clip-path="url(#clip0_1288_3422)">
<path d="M17.25 14.8437C17.25 13.618 16.6786 12.9063 15.957 12.4658C15.194 12.0001 14.2565 11.8438 13.667 11.8437C13.2838 11.8437 12.9853 11.6443 12.7998 11.4873C12.6006 11.3186 12.4172 11.1013 12.2539 10.8809C11.9269 10.4392 11.5835 9.85371 11.251 9.2832C10.9086 8.69562 10.5693 8.10774 10.2276 7.60058C9.87635 7.07941 9.57373 6.72305 9.32814 6.5459C8.40277 5.87856 7.58161 5.77123 6.55666 5.7539L5.00685 10.9375H10V12.4375H7.75002V13.0937C7.75002 13.1117 7.74935 13.1296 7.74807 13.1475L7.30666 19.25H7.36818L11.5772 16.3799C11.8423 16.1991 12.1935 16.2079 12.4502 16.4004L16.25 19.25H17.25V14.8437ZM18.75 20C18.75 20.4142 18.4142 20.75 18 20.75H16C15.8377 20.75 15.6796 20.697 15.5498 20.5996L11.9795 17.9219L8.02248 20.6201C7.89799 20.7049 7.75026 20.75 7.59963 20.75H6.50002C6.29175 20.75 6.09307 20.6632 5.95119 20.5107C5.8094 20.3583 5.73706 20.1539 5.75197 19.9463L6.25002 13.0635V12.4375H4.00002C3.76312 12.4375 3.54 12.3257 3.39846 12.1357C3.25694 11.9457 3.21342 11.6997 3.28127 11.4727L5.28127 4.78515C5.37624 4.46761 5.66857 4.25 6.00002 4.25C7.30161 4.25 8.69199 4.23802 10.2051 5.3291C10.6799 5.67147 11.1059 6.21979 11.4717 6.76269C11.847 7.3196 12.2139 7.95589 12.5469 8.52734C12.8899 9.11593 13.1914 9.62555 13.46 9.98828C13.5944 10.1698 13.6972 10.2823 13.7686 10.3428C13.7702 10.3442 13.7719 10.3454 13.7735 10.3467C14.558 10.3637 15.7251 10.5672 16.7383 11.1855C17.8403 11.8583 18.75 13.0226 18.75 14.8437V20Z" fill="white"/>
<path d="M20.25 17.3545C20.25 16.5023 19.7681 15.7229 19.0059 15.3418L17.665 14.6709L18.335 13.3291L19.6768 14C20.9472 14.6352 21.75 15.9341 21.75 17.3545V18H20.25V17.3545Z" fill="white"/>
</g>
<defs>
<clipPath id="clip0_1288_3422">
<rect width="24" height="24" fill="white"/>
</clipPath>
</defs>
</svg>
