<svg width="24" height="24" viewBox="0 0 24 24" fill="none" xmlns="http://www.w3.org/2000/svg">
<path d="M5.25 14.25V8H6.75V14.25C6.75 17.0114 8.98858 19.25 11.75 19.25C14.5114 19.25 16.75 17.0114 16.75 14.25V7.92285C16.7499 6.17059 15.3294 4.75012 13.5771 4.75C11.8248 4.75 10.4044 6.17051 10.4043 7.92285V13.8086C10.4043 14.5413 10.9978 15.1356 11.7305 15.1357C12.4633 15.1357 13.0576 14.5414 13.0576 13.8086V8H14.5576V13.8086C14.5576 15.3699 13.2917 16.6357 11.7305 16.6357C10.1693 16.6356 8.9043 15.3698 8.9043 13.8086V7.92285C8.90442 5.34209 10.9964 3.25 13.5771 3.25C16.1578 3.25012 18.2499 5.34216 18.25 7.92285V14.25C18.25 17.8399 15.3399 20.75 11.75 20.75C8.16015 20.75 5.25 17.8399 5.25 14.25Z" fill="#F5F5F7"/>
</svg>
