<svg width="24" height="24" viewBox="0 0 24 24" fill="none" xmlns="http://www.w3.org/2000/svg">
<path d="M12 5C16.9706 5 21 10.8333 21 12L20.9883 12.123C20.7467 13.5264 16.8149 19 12 19V17.5C13.9111 17.5 15.8016 16.3563 17.3115 14.8691C18.0465 14.1452 18.6343 13.3929 19.0293 12.7764C19.2273 12.4672 19.3642 12.2127 19.4453 12.0293C19.4497 12.0193 19.4522 12.009 19.4561 12C19.4522 11.991 19.4497 11.9807 19.4453 11.9707C19.3642 11.7873 19.2273 11.5328 19.0293 11.2236C18.6343 10.6071 18.0465 9.85477 17.3115 9.13086C15.8016 7.64368 13.9111 6.5 12 6.5C10.0889 6.5 8.19841 7.64368 6.68848 9.13086C5.9535 9.85477 5.36567 10.6071 4.9707 11.2236C4.77267 11.5328 4.63578 11.7873 4.55469 11.9707C4.55023 11.9808 4.54688 11.9908 4.54297 12C4.54688 12.0092 4.55023 12.0192 4.55469 12.0293C4.63578 12.2127 4.77267 12.4672 4.9707 12.7764C5.36567 13.3929 5.9535 14.1452 6.68848 14.8691C8.19841 16.3563 10.0889 17.5 12 17.5V19L11.7676 18.9961C6.90443 18.8191 3 13.1484 3 12C3 10.8333 7.02944 5 12 5Z" fill="#F5F5F7"/>
<path d="M13.5 12C13.5 11.1716 12.8284 10.5 12 10.5C11.1716 10.5 10.5 11.1716 10.5 12C10.5 12.8284 11.1716 13.5 12 13.5V15C10.3431 15 9 13.6569 9 12C9 10.3431 10.3431 9 12 9C13.6569 9 15 10.3431 15 12C15 13.6569 13.6569 15 12 15V13.5C12.8284 13.5 13.5 12.8284 13.5 12Z" fill="#F5F5F7"/>
</svg>
