<svg width="24" height="24" viewBox="0 0 24 24" fill="none" xmlns="http://www.w3.org/2000/svg">
<path d="M8.43683 13.4829C7.29082 10.9044 9.17828 8 12 8C14.8217 8 16.7092 10.9044 15.5632 13.4829L14 17H10L8.43683 13.4829Z" stroke="#F5F5F7" stroke-width="1.5"/>
<path d="M12.7497 2.74996H11.2498V5.24969H12.7497V2.74996Z" fill="#F5F5F7"/>
<path d="M19.7422 6.47465L18.6816 5.4141L16.9141 7.18168L17.9746 8.24223L19.7422 6.47465Z" fill="#F5F5F7"/>
<path d="M4.35376 6.47465L5.41431 5.4141L7.18188 7.18168L6.12134 8.24223L4.35376 6.47465Z" fill="#F5F5F7"/>
<path d="M2.74998 13.5781L2.74998 12.0782L5.24971 12.0782L5.24971 13.5781L2.74998 13.5781Z" fill="#F5F5F7"/>
<path d="M18.75 13.5781L18.75 12.0782L21.2497 12.0782L21.2497 13.5781L18.75 13.5781Z" fill="#F5F5F7"/>
<path d="M9.5 20H14.5V21.5H9.5V20Z" fill="#F5F5F7"/>
</svg>
