<svg width="24" height="24" viewBox="0 0 24 24" fill="none" xmlns="http://www.w3.org/2000/svg">
<path d="M16.9895 6.52937C17.4242 6.96408 17.4748 7.64455 17.1256 8.13624L17.0503 8.23222L12.7711 13.1689L10.4598 16.1416C10.223 16.4461 9.85878 16.6243 9.47307 16.6243H5.97483C5.28451 16.6243 4.72499 16.0647 4.72496 15.3744L4.72496 11.8762C4.72499 11.4905 4.90318 11.1262 5.20764 10.8894L8.18039 8.57818L13.117 4.29894L13.213 4.22367C13.7047 3.87445 14.3852 3.925 14.8199 4.35971L16.9895 6.52937ZM9.14783 9.72378L9.13333 9.7369L9.11745 9.74864L6.2248 11.9977L6.2248 15.1244L9.35085 15.1238L11.6006 12.2318L11.6123 12.2159L11.6255 12.2014L15.7645 7.42568L13.9236 5.58472L9.14783 9.72378Z" fill="#F5F5F7"/>
<path d="M13.85 14.6095C14.2332 14.1977 14.7815 13.7368 15.5134 13.75C15.861 13.7563 16.1912 13.8511 16.4675 14.0623C16.7382 14.2692 16.896 14.5416 16.99 14.7973C17.1645 15.2722 17.1665 15.8416 17.1633 16.2529C17.16 16.6782 17.1541 16.9744 17.1817 17.1914C17.2157 17.1758 17.2358 17.1566 17.2547 17.137C17.3536 17.0344 17.412 16.9103 17.5964 16.5936C17.754 16.323 17.9886 15.9539 18.3971 15.6732C18.819 15.3833 19.3481 15.2385 20.0135 15.2506L20.0005 16.0001L19.9865 16.7498C19.5615 16.742 19.3574 16.8337 19.2467 16.9097C19.1229 16.9949 19.0251 17.1214 18.8929 17.3484C18.7876 17.5292 18.5983 17.9054 18.335 18.1786C18.0125 18.5129 17.5788 18.7216 17.0002 18.7216C16.6515 18.7216 16.323 18.5965 16.0785 18.3295C15.8607 18.0917 15.7689 17.8044 15.7238 17.5825C15.6379 17.1602 15.6603 16.6166 15.6632 16.2418C15.6667 15.7896 15.6478 15.4937 15.5822 15.315C15.5714 15.2854 15.5614 15.2678 15.5555 15.2583C15.5435 15.2554 15.522 15.2508 15.4866 15.2501C15.4324 15.2491 15.2752 15.281 14.9486 15.632C14.6289 15.9755 14.3159 16.4307 13.8842 17.0035C13.0829 18.0668 11.9435 19.4366 10.1231 19.74C9.51937 19.8406 8.66622 19.8414 7.93597 19.6648C7.5722 19.5768 7.17774 19.4302 6.85891 19.1789C6.51985 18.9115 6.2501 18.5064 6.25003 17.9714L7.74983 17.9717C7.74945 17.9703 7.74806 17.9653 7.74548 17.9604C7.74736 17.9633 7.7582 17.9779 7.78797 18.0014C7.87016 18.0661 8.03212 18.1446 8.28885 18.2067C8.80033 18.3304 9.44793 18.3315 9.87693 18.26C11.0563 18.0633 11.881 17.1693 12.6864 16.1006C13.0581 15.6073 13.4597 15.0289 13.85 14.6095Z" fill="#F5F5F7"/>
</svg>
