<svg width="24" height="24" viewBox="0 0 24 24" fill="none" xmlns="http://www.w3.org/2000/svg">
<path d="M14.75 7.25C14.75 5.73122 13.5188 4.5 12 4.5C10.4812 4.5 9.25 5.73122 9.25 7.25C9.25 8.76879 10.4812 10 12 10C13.5188 10 14.75 8.76879 14.75 7.25ZM16.25 7.25C16.25 9.59721 14.3472 11.5 12 11.5C9.65279 11.5 7.75 9.59721 7.75 7.25C7.75 4.90279 9.65279 3 12 3C14.3472 3 16.25 4.90279 16.25 7.25Z" fill="#F5F5F7"/>
<path d="M16.25 3.75977C18.0663 3.88799 19.5 5.40109 19.5 7.25C19.5 9.09889 18.0663 10.611 16.25 10.7393C16.6251 10.2829 16.927 9.76504 17.1406 9.20312C17.8121 8.81015 18.2646 8.08416 18.2646 7.25C18.2646 6.41567 17.8123 5.68881 17.1406 5.2959C16.9269 4.73407 16.6251 4.21605 16.25 3.75977Z" fill="#F5F5F7"/>
<path d="M7.75 3.75977C5.93371 3.88799 4.5 5.40109 4.5 7.25C4.5 9.09889 5.93374 10.611 7.75 10.7393C7.37488 10.2829 7.07299 9.76504 6.85938 9.20312C6.18793 8.81015 5.73535 8.08416 5.73535 7.25C5.73535 6.41567 6.1877 5.68881 6.85938 5.2959C7.07306 4.73407 7.37485 4.21605 7.75 3.75977Z" fill="#F5F5F7"/>
<path d="M17 17C17 15.6193 15.8807 14.5 14.5 14.5H9.5C8.11929 14.5 7 15.6193 7 17V18.5H17V17ZM18.5 19.5L18.4902 19.6006C18.4503 19.7961 18.2961 19.9503 18.1006 19.9902L18 20H6C5.75829 20 5.55629 19.8286 5.50977 19.6006L5.5 19.5V17C5.5 14.7909 7.29086 13 9.5 13H14.5L14.7061 13.0049C16.8194 13.1121 18.5 14.86 18.5 17V19.5Z" fill="#F5F5F7"/>
<path d="M18.5 13.0645C20.3666 13.4027 21.7822 15.0359 21.7822 17V19.5L21.7725 19.6006C21.7326 19.7961 21.5783 19.9503 21.3828 19.9902L21.2822 20H20.2822L20.2773 18.5H20.2822V17C20.2822 16.9306 20.278 16.8619 20.2725 16.7939V16.7822C20.2724 15.1938 19.6102 13.8054 18.5 13.0645Z" fill="#F5F5F7"/>
<path d="M5.50223 13C3.63567 13.3383 2.22 14.9715 2.22 16.9355V19.4355L2.22977 19.5361C2.26967 19.7316 2.42392 19.8859 2.61942 19.9258L2.72 19.9355H3.72L3.72488 18.4355H3.72V16.9355C3.72 16.8661 3.72422 16.7975 3.72977 16.7295V16.7178C3.72988 15.1294 4.39206 13.7409 5.50223 13Z" fill="#F5F5F7"/>
</svg>
