<svg width="24" height="24" viewBox="0 0 24 24" fill="none" xmlns="http://www.w3.org/2000/svg">
<path d="M11.75 3C14.9984 3 17.9073 4.59031 19.4141 7H17.543C16.2362 5.49731 14.158 4.5 11.75 4.5C7.64873 4.5 4.5 7.38916 4.5 10.75C4.5 12.14 5.02831 13.4322 5.93945 14.4834C6.14947 14.7257 6.27123 15.0492 6.25 15.3926L6.07812 18.1572L8.7666 16.8213L8.87402 16.7734C9.12651 16.6761 9.39894 16.6658 9.65039 16.7314C9.68342 16.7401 9.71677 16.7476 9.75 16.7559V18.292C9.61745 18.2644 9.48566 18.2359 9.35547 18.2031L6.35938 19.6943C5.49805 20.1228 4.49555 19.4581 4.55469 18.498L4.74609 15.3945C3.65783 14.1089 3 12.5025 3 10.75C3 6.37885 7.01471 3 11.75 3Z" fill="#F5F5F7"/>
<path d="M17.8462 15.8466C18.276 15.4169 18.8167 15.0051 19.344 14.6472C18.817 14.2895 18.2764 13.8792 17.8469 13.4498C17.4171 13.02 17.0061 12.4788 16.6482 11.9513C16.2903 12.4788 15.8792 13.02 15.4494 13.4498C15.0199 13.8792 14.4793 14.2895 13.9523 14.6472C14.4797 15.0051 15.0203 15.4169 15.4501 15.8466C15.8794 16.276 16.2905 16.8161 16.6482 17.343C17.0058 16.8161 17.4169 16.276 17.8462 15.8466ZM18.6549 17.1773C18.0691 17.8449 17.5044 18.7549 17.1239 19.4195C16.9194 19.7767 16.3769 19.7767 16.1724 19.4195C15.7919 18.7549 15.2272 17.8449 14.6415 17.1773L14.3894 16.9073C13.7168 16.2347 12.6362 15.5585 11.8766 15.1237C11.5194 14.9191 11.5194 14.3766 11.8766 14.1721C12.5412 13.7916 13.4511 13.227 14.1187 12.6412L14.3887 12.3891C15.0613 11.7166 15.7375 10.636 16.1724 9.87629C16.3769 9.51931 16.9194 9.51931 17.1239 9.87629C17.5045 10.541 18.0696 11.4514 18.6555 12.1191L18.9076 12.3891C19.5801 13.0616 20.6602 13.7373 21.4198 14.1721C21.7769 14.3766 21.7769 14.9191 21.4198 15.1237C20.6601 15.5585 19.5795 16.2347 18.9069 16.9073L18.6549 17.1773Z" fill="#F5F5F7"/>
</svg>
