<svg width="24" height="24" viewBox="0 0 24 24" fill="none" xmlns="http://www.w3.org/2000/svg">
<path d="M20.75 7.5H19.25V5.75H4.75V18.8467L7.71777 16.25H9V17.75H8.28223L5.32324 20.3389C4.5151 21.046 3.25025 20.4722 3.25 19.3984V5.5C3.25 4.80964 3.80964 4.25 4.5 4.25H19.5C20.1904 4.25 20.75 4.80964 20.75 5.5V7.5Z" fill="#F5F5F7"/>
<path d="M22.1041 15.1309C21.2454 15.6318 20.0676 16.3816 19.2902 17.159C18.5131 17.9361 17.7637 19.1135 17.2628 19.9722C16.7619 19.1135 16.0125 17.9361 15.2354 17.159C14.458 16.3816 13.2802 15.6318 12.4215 15.1309C13.2801 14.6299 14.4582 13.8813 15.2354 13.1041C16.0128 12.3267 16.7619 11.1483 17.2628 10.2895C17.7637 11.1483 18.5128 12.3267 19.2902 13.1041C20.0674 13.8813 21.2455 14.6299 22.1041 15.1309Z" stroke="#F5F5F7" stroke-width="1.5"/>
</svg>
