<svg width="24" height="24" viewBox="0 0 24 24" fill="none" xmlns="http://www.w3.org/2000/svg">
<path d="M20 8.5V5.5C20 5.22386 19.7761 5 19.5 5H4.5C4.22386 5 4 5.22386 4 5.5V19.3981C4 19.8277 4.50596 20.0573 4.82925 19.7744L8 17H10" stroke="#F5F5F7" stroke-width="1.5"/>
<path d="M20.9861 16.2619C20.3041 16.6695 19.4338 17.2411 18.8372 17.8377C18.241 18.4339 17.6704 19.3034 17.2628 19.9852C16.8552 19.3034 16.2845 18.4339 15.6884 17.8377C15.0918 17.2411 14.2215 16.6695 13.5394 16.2619C14.2213 15.8543 15.0914 15.2844 15.6877 14.6881C16.2843 14.0915 16.8551 13.2206 17.2628 12.5385C17.6705 13.2206 18.2412 14.0915 18.8379 14.6881C19.4342 15.2844 20.3043 15.8543 20.9861 16.2619Z" stroke="#F5F5F7" stroke-width="1.5"/>
</svg>
