<svg width="24" height="24" viewBox="0 0 24 24" fill="none" xmlns="http://www.w3.org/2000/svg">
<path d="M12.25 7C12.25 5.48122 11.0188 4.25 9.5 4.25C7.98121 4.25 6.75 5.48122 6.75 7C6.75 8.51879 7.98121 9.75 9.5 9.75C11.0188 9.75 12.25 8.51879 12.25 7ZM13.75 7C13.75 9.34721 11.8472 11.25 9.5 11.25C7.15279 11.25 5.25 9.34721 5.25 7C5.25 4.65279 7.15279 2.75 9.5 2.75C11.8472 2.75 13.75 4.65279 13.75 7Z" fill="#F5F5F7"/>
<path d="M15.5 3.5C17.433 3.5 19 5.06701 19 7C19 8.933 17.433 10.5 15.5 10.5C15.2595 10.5 15.0247 10.4749 14.7979 10.4287C15.0816 10.0735 15.3221 9.68285 15.5117 9.26367C16.7571 9.25736 17.7646 8.24686 17.7646 7C17.7646 5.75315 16.7571 4.74166 15.5117 4.73535C15.322 4.31624 15.0816 3.92546 14.7979 3.57031C15.0247 3.52412 15.2595 3.5 15.5 3.5Z" fill="#F5F5F7"/>
<path d="M14.5 17C14.5 15.6193 13.3807 14.5 12 14.5H7C5.61929 14.5 4.5 15.6193 4.5 17V18.5H14.5V17ZM16 19.5L15.9902 19.6006C15.9503 19.7961 15.7961 19.9503 15.6006 19.9902L15.5 20H3.5C3.25829 20 3.05629 19.8286 3.00977 19.6006L3 19.5V17C3 14.7909 4.79086 13 7 13H12L12.2061 13.0049C14.3194 13.1121 16 14.86 16 17V19.5Z" fill="#F5F5F7"/>
<path d="M16.7178 13.0645C18.5843 13.4027 20 15.0359 20 17V19.5L19.9902 19.6006C19.9503 19.7961 19.7961 19.9503 19.6006 19.9902L19.5 20H18.5L18.4951 18.5H18.5V17C18.5 16.9306 18.4958 16.8619 18.4902 16.7939V16.7822C18.4901 15.1938 17.8279 13.8054 16.7178 13.0645Z" fill="#F5F5F7"/>
</svg>
