<svg width="24" height="24" viewBox="0 0 24 24" fill="none" xmlns="http://www.w3.org/2000/svg">
<path d="M12.25 7C12.25 5.48122 11.0188 4.25 9.5 4.25C7.98121 4.25 6.75 5.48122 6.75 7C6.75 8.51879 7.98121 9.75 9.5 9.75C11.0188 9.75 12.25 8.51879 12.25 7ZM13.75 7C13.75 9.34721 11.8472 11.25 9.5 11.25C7.15279 11.25 5.25 9.34721 5.25 7C5.25 4.65279 7.15279 2.75 9.5 2.75C11.8472 2.75 13.75 4.65279 13.75 7Z" fill="#F5F5F7"/>
<path d="M4.5 19H14.5V15H4.5V19ZM16 20C16 20.2761 15.7761 20.5 15.5 20.5H3.5C3.22386 20.5 3 20.2761 3 20V14C3 13.7239 3.22386 13.5 3.5 13.5H15.5C15.7761 13.5 16 13.7239 16 14V20Z" fill="#F5F5F7"/>
<path d="M20.6006 13.5098C20.8286 13.5563 21 13.7583 21 14V20L20.9902 20.1006C20.9503 20.2961 20.7961 20.4503 20.6006 20.4902L20.5 20.5H18V19H19.5V15H18V13.5H20.5L20.6006 13.5098Z" fill="#F5F5F7"/>
<path d="M15.5 3.5C17.433 3.5 19 5.06701 19 7C19 8.933 17.433 10.5 15.5 10.5C15.2595 10.5 15.0247 10.4749 14.7979 10.4287C15.0816 10.0735 15.3221 9.68285 15.5117 9.26367C16.7571 9.25736 17.7646 8.24686 17.7646 7C17.7646 5.75315 16.7571 4.74166 15.5117 4.73535C15.322 4.31624 15.0816 3.92546 14.7979 3.57031C15.0247 3.52412 15.2595 3.5 15.5 3.5Z" fill="#F5F5F7"/>
</svg>
