<svg width="24" height="24" viewBox="0 0 24 24" fill="none" xmlns="http://www.w3.org/2000/svg">
<path d="M16.5547 9.50488L11.9072 14.6162C11.4271 15.1442 10.6033 15.1638 10.0986 14.6592L7.46973 12.0303L8.53027 10.9697L10.9736 13.4131L15.4453 8.49512L16.5547 9.50488Z" fill="#F5F5F7"/>
<path d="M19.5 12C19.5 7.85786 16.1421 4.5 12 4.5C7.85786 4.5 4.5 7.85786 4.5 12C4.5 16.1421 7.85786 19.5 12 19.5V21C7.02944 21 3 16.9706 3 12C3 7.02944 7.02944 3 12 3C16.9706 3 21 7.02944 21 12C21 16.9706 16.9706 21 12 21V19.5C16.1421 19.5 19.5 16.1421 19.5 12Z" fill="#F5F5F7"/>
</svg>
