<svg width="24" height="24" viewBox="0 0 24 24" fill="none" xmlns="http://www.w3.org/2000/svg">
<path d="M19.25 9C19.25 6.1005 16.8995 3.75 14 3.75C11.1005 3.75 8.75 6.1005 8.75 9C8.75 11.8995 11.1005 14.25 14 14.25C16.8995 14.25 19.25 11.8995 19.25 9ZM20.75 9C20.75 12.7279 17.7279 15.75 14 15.75C10.2721 15.75 7.25 12.7279 7.25 9C7.25 5.27208 10.2721 2.25 14 2.25C17.7279 2.25 20.75 5.27208 20.75 9Z" fill="#F5F5F7"/>
<path d="M6 8.16602C6 8.66184 6.04283 9.14777 6.12207 9.62109C4.5547 10.5293 3.5 12.2242 3.5 14.166C3.5 17.0655 5.8505 19.416 8.75 19.416C10.692 19.416 12.3858 18.3605 13.2939 16.793C13.7676 16.8723 14.2538 16.916 14.75 16.916C14.8052 16.916 14.8601 16.9121 14.915 16.9111C13.863 19.2703 11.4999 20.916 8.75 20.916C5.02208 20.916 2 17.8939 2 14.166C2 11.4162 3.64498 9.05216 6.00391 8C6.00288 8.05523 6 8.11054 6 8.16602Z" fill="#F5F5F7"/>
<rect x="8.76776" y="12" width="2.5" height="2.5" transform="rotate(45 8.76776 12)" fill="#F5F5F7"/>
<rect x="13.9678" y="7.2" width="2.5" height="2.5" transform="rotate(45 13.9678 7.2)" fill="#F5F5F7"/>
</svg>
