<svg width="24" height="24" viewBox="0 0 24 24" fill="none" xmlns="http://www.w3.org/2000/svg">
<path d="M2.99998 21.5H5.29288C5.73833 21.5 5.96143 20.9614 5.64643 20.6464L3.35353 18.3535C3.03853 18.0385 2.49998 18.2616 2.49998 18.7071V21C2.49998 21.2761 2.72383 21.5 2.99998 21.5Z" fill="#F5F5F7"/>
<path d="M20 2.5H17.7071C17.2616 2.5 17.0385 3.03855 17.3535 3.35355L19.6464 5.64645C19.9614 5.96145 20.5 5.73835 20.5 5.2929V3C20.5 2.72385 20.2761 2.5 20 2.5Z" fill="#F5F5F7"/>
<path d="M7.75 16.75H14.75V18.25H7C6.58579 18.25 6.25 17.9142 6.25 17.5V9.75H7.75V16.75Z" fill="#F5F5F7"/>
<path d="M16.25 7.75H2.25V6.25H17C17.4142 6.25 17.75 6.58579 17.75 7V21.75H16.25V7.75Z" fill="#F5F5F7"/>
<path d="M16.25 18.25V16.75H21.75V18.25H16.25Z" fill="#F5F5F7"/>
<path d="M7.75 7.75H6.25V2.25H7.75V7.75Z" fill="#F5F5F7"/>
</svg>
