<svg width="24" height="24" viewBox="0 0 24 24" fill="none" xmlns="http://www.w3.org/2000/svg">
<path d="M4.5 18H19.5V9.28418L15.4668 6H4.5V18ZM21 19L20.9902 19.1006C20.9437 19.3286 20.7417 19.5 20.5 19.5H3.5C3.22386 19.5 3 19.2761 3 19V5C3 4.72386 3.22386 4.5 3.5 4.5H16L20.8154 8.4209C20.932 8.51585 21 8.65919 21 8.80957V19Z" fill="#F5F5F7"/>
<path d="M9.5 13.5H12.5V10.5H9.5V13.5ZM14 11.333L15.6895 10.207C15.8223 10.1189 16 10.2144 16 10.374V13.626C16 13.7856 15.8223 13.8811 15.6895 13.793L14 12.666V14.5C14 14.7761 13.7761 15 13.5 15H8.5C8.22386 15 8 14.7761 8 14.5V9.5C8 9.22386 8.22386 9 8.5 9H13.5C13.7761 9 14 9.22386 14 9.5V11.333Z" fill="#F5F5F7"/>
</svg>
