<svg width="24" height="24" viewBox="0 0 24 24" fill="none" xmlns="http://www.w3.org/2000/svg">
<path d="M4.5 18H19.5V9.28418L15.4668 6H4.5V18ZM21 19L20.9902 19.1006C20.9437 19.3286 20.7417 19.5 20.5 19.5H3.5C3.22386 19.5 3 19.2761 3 19V5C3 4.72386 3.22386 4.5 3.5 4.5H16L20.8154 8.4209C20.932 8.51585 21 8.65919 21 8.80957V19Z" fill="#F5F5F7"/>
<mask id="path-2-inside-1_190_126" fill="white">
<path d="M13.5 9C13.7761 9 14 9.22386 14 9.5V11.333L15.6895 10.207C15.8223 10.1189 16 10.2144 16 10.374V13.626C16 13.7856 15.8223 13.8811 15.6895 13.793L14 12.666V14.5C14 14.7761 13.7761 15 13.5 15H8.5C8.22386 15 8 14.7761 8 14.5V9.5C8 9.22386 8.22386 9 8.5 9H13.5Z"/>
</mask>
<path d="M14 9.5H15.2L15.2 9.5L14 9.5ZM14 11.333H12.8V13.5749L14.6655 12.3316L14 11.333ZM15.6895 10.207L15.026 9.20711L15.0239 9.20848L15.6895 10.207ZM16 10.374H14.8V10.374H16ZM16 13.626H17.2V13.626H16ZM15.6895 13.793L15.0235 14.7913L15.026 14.7929L15.6895 13.793ZM14 12.666L14.6659 11.6677L12.8 10.4231V12.666H14ZM13.5 15V16.2V16.2V15ZM8 14.5H6.8V14.5H8ZM8.5 9V7.8H8.5L8.5 9ZM13.5 9V10.2C13.1134 10.2 12.8 9.8866 12.8 9.5L14 9.5L15.2 9.5C15.2 8.56112 14.4389 7.8 13.5 7.8V9ZM14 9.5H12.8V11.333H14H15.2V9.5H14ZM14 11.333L14.6655 12.3316L16.355 11.2056L15.6895 10.207L15.0239 9.20848L13.3345 10.3345L14 11.333ZM15.6895 10.207L16.3529 11.207C15.6855 11.6497 14.8 11.1686 14.8 10.374H16H17.2C17.2 9.26032 15.9591 8.588 15.026 9.20711L15.6895 10.207ZM16 10.374H14.8V13.626H16H17.2V10.374H16ZM16 13.626H14.8C14.8 12.8314 15.6855 12.3503 16.3529 12.793L15.6895 13.793L15.026 14.7929C15.9591 15.412 17.2 14.7397 17.2 13.626H16ZM15.6895 13.793L16.3554 12.7947L14.6659 11.6677L14 12.666L13.3341 13.6643L15.0235 14.7913L15.6895 13.793ZM14 12.666H12.8V14.5H14H15.2V12.666H14ZM14 14.5H12.8C12.8 14.1134 13.1134 13.8 13.5 13.8V15V16.2C14.4389 16.2 15.2 15.4389 15.2 14.5H14ZM13.5 15V13.8H8.5V15V16.2H13.5V15ZM8.5 15V13.8C8.8866 13.8 9.2 14.1134 9.2 14.5H8H6.8C6.8 15.4389 7.56112 16.2 8.5 16.2V15ZM8 14.5H9.2V9.5H8H6.8V14.5H8ZM8 9.5H9.2C9.2 9.8866 8.8866 10.2 8.5 10.2L8.5 9L8.5 7.8C7.56112 7.8 6.8 8.56112 6.8 9.5H8ZM8.5 9V10.2H13.5V9V7.8H8.5V9Z" fill="#F5F5F7" mask="url(#path-2-inside-1_190_126)"/>
</svg>
