<svg width="24" height="24" viewBox="0 0 24 24" fill="none" xmlns="http://www.w3.org/2000/svg">
<path d="M17.1035 6.96289C19.457 8.77068 21 11.2782 21 12L20.9883 12.123C20.7467 13.5264 16.8149 19 12 19L11.7676 18.9961C11.262 18.9777 10.7677 18.8964 10.2861 18.7705L11.0723 17.4102C11.3801 17.4671 11.6895 17.5 12 17.5C13.9111 17.5 15.8016 16.3563 17.3115 14.8691C18.0465 14.1452 18.6343 13.3929 19.0293 12.7764C19.2273 12.4672 19.3642 12.2127 19.4453 12.0293C19.4497 12.0193 19.4522 12.009 19.4561 12C19.4522 11.991 19.4497 11.9807 19.4453 11.9707C19.3642 11.7873 19.2273 11.5328 19.0293 11.2236C18.6343 10.6071 18.0465 9.85477 17.3115 9.13086C17.0048 8.82874 16.6818 8.54147 16.3467 8.27441L17.1035 6.96289ZM12 5C12.9789 5 13.9204 5.2283 14.8027 5.60059L14.0352 6.90723C13.3704 6.64897 12.6868 6.5 12 6.5C10.0889 6.5 8.19841 7.64368 6.68848 9.13086C5.9535 9.85477 5.36567 10.6071 4.9707 11.2236C4.77267 11.5328 4.63578 11.7873 4.55469 11.9707C4.55023 11.9808 4.54688 11.9908 4.54297 12C4.54688 12.0092 4.55023 12.0192 4.55469 12.0293C4.63578 12.2127 4.77267 12.4672 4.9707 12.7764C5.36567 13.3929 5.9535 14.1452 6.68848 14.8691C7.24526 15.4175 7.85386 15.9191 8.49609 16.334L7.7373 17.626C4.91766 15.8263 3 12.8045 3 12C3 10.8333 7.02944 5 12 5ZM14.8057 10.9443C14.9294 11.273 15 11.6281 15 12C15 13.4912 13.9118 14.7275 12.4863 14.96L14.8057 10.9443ZM12 9C12.2586 9 12.5087 9.03614 12.748 9.09766L11.9219 10.5039C11.1298 10.5446 10.5 11.1978 10.5 12C10.5 12.2371 10.5563 12.4608 10.6543 12.6602L9.8291 14.0664C9.31664 13.5282 9 12.8018 9 12C9 10.3431 10.3431 9 12 9Z" fill="#F5F5F7"/>
<path d="M17.5372 3.54682L7.64661 20.3795L6.35324 19.62L16.2438 2.78733L17.5372 3.54682Z" fill="#F5F5F7"/>
</svg>
