<svg width="24" height="24" viewBox="0 0 24 24" fill="none" xmlns="http://www.w3.org/2000/svg">
<path d="M21.5 19.25V20.75H3.5V19.25H21.5Z" fill="#F5F5F7"/>
<path d="M15.9336 2.25C16.1325 2.25007 16.3233 2.32906 16.4639 2.46973L20.1162 6.12402C20.4089 6.41689 20.4089 6.89173 20.1162 7.18457L11.1895 16.1162C11.0488 16.2569 10.8572 16.3359 10.6582 16.3359H7C6.58584 16.3359 6.25008 16.0001 6.25 15.5859V11.9453C6.25011 11.7467 6.3294 11.5565 6.46973 11.416L15.4023 2.46973L15.5166 2.37598C15.639 2.29427 15.7843 2.25004 15.9336 2.25ZM7.75 12.2549V14.8359H10.3477L18.5254 6.65332L15.9336 4.06055L7.75 12.2549Z" fill="#F5F5F7"/>
</svg>
