<svg width="24" height="24" viewBox="0 0 24 24" fill="none" xmlns="http://www.w3.org/2000/svg">
<path d="M15.7939 8H13.501C13.0556 8 12.8325 8.53855 13.1475 8.85355L15.4404 11.1465C15.7554 11.4615 16.2939 11.2384 16.2939 10.7929V8.5C16.2939 8.22385 16.0701 8 15.7939 8Z" fill="#F5F5F7"/>
<path d="M8.5 16.2939H10.7929C11.2384 16.2939 11.4615 15.7554 11.1465 15.4404L8.85355 13.1475C8.53855 12.8325 8 13.0556 8 13.501V15.7939C8 16.0701 8.22385 16.2939 8.5 16.2939Z" fill="#F5F5F7"/>
<path d="M4.75 19.25H19.25V4.75H4.75V19.25ZM20.75 19.7998C20.75 20.3245 20.3245 20.75 19.7998 20.75H4.2002C3.67552 20.75 3.25 20.3245 3.25 19.7998V4.2002C3.25 3.67552 3.67553 3.25 4.2002 3.25H19.7998C20.3245 3.25 20.75 3.67553 20.75 4.2002V19.7998Z" fill="#F5F5F7"/>
</svg>
