<svg width="24" height="24" viewBox="0 0 24 24" fill="none" xmlns="http://www.w3.org/2000/svg">
<path d="M19.5 12C19.5 7.85786 16.1421 4.5 12 4.5C7.85786 4.5 4.5 7.85786 4.5 12C4.5 16.1421 7.85786 19.5 12 19.5V21C7.02944 21 3 16.9706 3 12C3 7.02944 7.02944 3 12 3C16.9706 3 21 7.02944 21 12C21 16.9706 16.9706 21 12 21V19.5C16.1421 19.5 19.5 16.1421 19.5 12Z" fill="#F5F5F7"/>
<path d="M14.8626 8.42103C15.2242 8.33579 15.5494 8.66096 15.4642 9.02259L14.306 13.9347C14.2624 14.1189 14.1191 14.2632 13.9349 14.3068L9.02277 15.464C8.66114 15.5492 8.33597 15.2241 8.42121 14.8624L9.57843 9.95033C9.61651 9.78921 9.73169 9.659 9.88312 9.59974L9.9505 9.57923L14.8626 8.42103ZM10.8968 10.8966L10.2523 13.6329L12.9886 12.9884L13.6331 10.2521L10.8968 10.8966Z" fill="#F5F5F7"/>
</svg>
