<svg width="24" height="24" viewBox="0 0 24 24" fill="none" xmlns="http://www.w3.org/2000/svg">
<path d="M4.5 18H19.5V9.28418L15.4668 6H4.5V18ZM21 19L20.9902 19.1006C20.9437 19.3286 20.7417 19.5 20.5 19.5H3.5C3.22386 19.5 3 19.2761 3 19V5C3 4.72386 3.22386 4.5 3.5 4.5H16L20.8154 8.4209C20.932 8.51585 21 8.65919 21 8.80957V19Z" fill="#F5F5F7"/>
<path d="M13.7427 15.4855L12.6821 14.4248L14.8642 12.2427L12.6821 10.0607L13.7427 9L16.9855 12.2427L13.7427 15.4855Z" fill="#F5F5F7"/>
<path d="M9.24274 15.4855L8.18208 14.4248L10.3642 12.2427L8.18208 10.0607L9.24274 9L12.4855 12.2427L9.24274 15.4855Z" fill="#F5F5F7"/>
</svg>
