<svg width="24" height="24" viewBox="0 0 24 24" fill="none" xmlns="http://www.w3.org/2000/svg">
<path d="M12.7539 13H12.0039H11.2539L11.0241 8.02306C11.011 7.73817 11.2384 7.5 11.5236 7.5H12.4771C12.762 7.5 12.9894 7.73772 12.9766 8.02235L12.7539 13Z" fill="#F5F5F7"/>
<path d="M5.5 19.5H18.5V7.73633L15.4619 4.5H5.5V19.5ZM20 20.5C20 20.7761 19.7761 21 19.5 21H4.5L4.39941 20.9902C4.17145 20.9437 4 20.7417 4 20.5V3.5C4 3.22386 4.22386 3 4.5 3H16.1113L19.8643 6.99902C19.9512 7.09171 20 7.21373 20 7.34082V20.5Z" fill="#F5F5F7"/>
<circle cx="12" cy="16" r="1" fill="#F5F5F7"/>
</svg>
