<svg width="24" height="24" viewBox="0 0 24 24" fill="none" xmlns="http://www.w3.org/2000/svg">
<path d="M19.8643 6.99902C19.9512 7.09171 20 7.21373 20 7.34082V20.5C20 20.7761 19.7761 21 19.5 21H13V19.5H18.5V7.73633L15.4619 4.5H7.5V8H6V3.5C6 3.22386 6.22386 3 6.5 3H16.1113L19.8643 6.99902Z" fill="#F5F5F7"/>
<path d="M8.06069 13.7612C7.8715 12.533 8.71374 11.384 9.94189 11.1948C11.17 11.0056 12.319 11.8479 12.5082 13.076C12.6974 14.3042 11.8552 15.4532 10.627 15.6424C9.39887 15.8316 8.24988 14.9893 8.06069 13.7612ZM6.57817 13.9895C6.8935 16.0365 8.80847 17.4402 10.8554 17.1249C12.9023 16.8096 14.3061 14.8946 13.9907 12.8477C13.6754 10.8007 11.7604 9.39701 9.71352 9.71233C7.66659 10.0276 6.26285 11.9426 6.57817 13.9895Z" fill="#F5F5F7"/>
<path d="M3.96925 19.3744L5.0977 20.3625L8.68242 16.27L7.55397 15.2819L3.96925 19.3744Z" fill="#F5F5F7"/>
</svg>
