<svg width="24" height="24" viewBox="0 0 24 24" fill="none" xmlns="http://www.w3.org/2000/svg">
<path d="M19.8643 6.99902C19.9512 7.09171 20 7.21373 20 7.34082V20.5C20 20.7761 19.7761 21 19.5 21H13V19.5H18.5V7.73633L15.4619 4.5H7.5V8H6V3.5C6 3.22386 6.22386 3 6.5 3H16.1113L19.8643 6.99902Z" fill="#F5F5F7"/>
<path d="M10.7412 16.3836C9.10366 16.6359 7.57168 15.5129 7.31942 13.8754C7.06717 12.2378 8.19016 10.7058 9.8277 10.4536C11.4652 10.2013 12.9972 11.3243 13.2495 12.9619C13.5017 14.5994 12.3787 16.1314 10.7412 16.3836Z" stroke="#F5F5F7" stroke-width="1.5"/>
<path d="M8.11816 15.7759L4.53396 19.8688" stroke="#F5F5F7" stroke-width="1.5" stroke-linejoin="round"/>
</svg>
