<svg width="24" height="24" viewBox="0 0 24 24" fill="none" xmlns="http://www.w3.org/2000/svg">
<path d="M5.5 5.5L5.5 18.5L9.5 18.5L9.5 5.5L5.5 5.5ZM4.5 20L4.39941 19.9902C4.20392 19.9503 4.04966 19.7961 4.00977 19.6006L4 19.5L4 4.5L4.00977 4.39941C4.04966 4.20392 4.20392 4.04966 4.39941 4.00977L4.5 4L10.5 4C10.7761 4 11 4.22386 11 4.5L11 19.5C11 19.7761 10.7761 20 10.5 20L4.5 20Z" fill="#F5F5F7"/>
<path d="M14.5 5.5L14.5 9.5L18.5 9.5L18.5 5.5L14.5 5.5ZM13.5 11L13.3994 10.9902C13.2039 10.9503 13.0497 10.7961 13.0098 10.6006L13 10.5L13 4.5L13.0098 4.39941C13.0497 4.20392 13.2039 4.04966 13.3994 4.00977L13.5 4L19.5 4C19.7761 4 20 4.22386 20 4.5L20 10.5C20 10.7761 19.7761 11 19.5 11L13.5 11Z" fill="#F5F5F7"/>
<path d="M17.25 13L17.25 20L15.75 20L15.75 13L17.25 13Z" fill="#F5F5F7"/>
<path d="M20 17.25H13V15.75H20V17.25Z" fill="#F5F5F7"/>
</svg>
