<svg width="24" height="24" viewBox="0 0 24 24" fill="none" xmlns="http://www.w3.org/2000/svg">
<path d="M3.18264 10.5232C3.34493 10.9347 3.80017 11.1533 4.22279 11.0223L4.31171 10.9894L7.2998 9.68808L6.70028 8.31227L4.40282 9.31304L3.72364 6.80387L2.99993 7.00038L2.27645 7.19593L3.15237 10.4319L3.18264 10.5232Z" fill="#F5F5F7"/>
<path d="M5.01408 9.99416C6.12188 5.85979 10.3715 3.40628 14.5059 4.51408C18.6402 5.62188 21.0937 9.87149 19.9859 14.0059C18.8781 18.1402 14.6285 20.5937 10.4942 19.4859C7.72452 18.7438 5.7085 16.5917 5.01292 14.0055L4.28833 14.2006L3.56399 14.3948C4.39291 17.4767 6.79824 20.0485 10.1059 20.9348C15.0405 22.257 20.1126 19.3286 21.4348 14.3941C22.757 9.45952 19.8286 4.3874 14.8941 3.06519C9.95952 1.74298 4.8874 4.67136 3.56519 9.60593L5.01408 9.99416Z" fill="#F5F5F7"/>
<path d="M12.75 8L12.75 13.5361L15.335 14.8291L14.665 16.1709L11.665 14.6709C11.411 14.5439 11.25 14.2841 11.25 14L11.25 8L12.75 8Z" fill="#F5F5F7"/>
</svg>
