<svg width="24" height="24" viewBox="0 0 24 24" fill="none" xmlns="http://www.w3.org/2000/svg">
<path d="M14.6348 9.00879C14.8435 9.05144 15.0009 9.23725 15.001 9.45898V19.541L14.9922 19.6328C14.9557 19.8122 14.8138 19.9546 14.6348 19.9912L14.543 20H4.45801C4.23672 19.9999 4.05135 19.842 4.00879 19.6328L4 19.541V9.45898C4.00009 9.20575 4.20528 9.00009 4.45801 9H14.543L14.6348 9.00879ZM5.37402 18.623H13.627V10.377H5.37402V18.623Z" fill="#F5F5F7"/>
<path d="M14 4C17.3137 4 20 6.68629 20 10C20 12.6123 18.3302 14.8334 16 15.6572V14.0312C17.4815 13.2948 18.5 11.7667 18.5 10C18.5 7.51472 16.4853 5.5 14 5.5C12.2333 5.5 10.7052 6.5185 9.96875 8H8.34277C9.16657 5.66984 11.3877 4 14 4Z" fill="#F5F5F7"/>
</svg>
