<svg width="24" height="24" viewBox="0 0 24 24" fill="none" xmlns="http://www.w3.org/2000/svg">
<path d="M12.7627 18.75H3.2373L8 10.5L12.7627 18.75Z" stroke="#F5F5F7" stroke-width="1.5"/>
<path d="M17.3496 3.00586C14.9718 3.12759 13.0811 5.1148 13.0811 7.54785L13.0869 7.78125C13.0942 7.92607 13.1085 8.06903 13.1289 8.20996H14.6553C14.6082 7.99669 14.5811 7.77546 14.5811 7.54785C14.5811 5.87364 15.9243 4.5158 17.5811 4.51562C19.2378 4.51585 20.5811 5.87367 20.5811 7.54785C20.5806 9.22169 19.2375 10.5789 17.5811 10.5791C17.3555 10.5791 17.1361 10.5506 16.9248 10.5029V12.0459C17.1389 12.0775 17.3583 12.0947 17.5811 12.0947L17.8125 12.0889C20.1134 11.971 21.9585 10.1064 22.0752 7.78125L22.0811 7.54785C22.0811 5.0365 20.0662 3.00023 17.5811 3L17.3496 3.00586Z" fill="#F5F5F7"/>
<path d="M16.6348 8.00879C16.8433 8.05188 16.9998 8.23922 17 8.46289V16.6426L16.9912 16.7354C16.9547 16.9164 16.8138 17.0597 16.6348 17.0967L16.543 17.1055H11.8018L11.0654 15.7158H15.627V9.38965H9.37305V12.5225L8.03613 10C8.02531 9.97959 8.01251 9.96084 8 9.94238V8.46289C8.00025 8.20745 8.20451 8.00022 8.45703 8H16.543L16.6348 8.00879Z" fill="#F5F5F7"/>
</svg>
