<svg width="24" height="24" viewBox="0 0 24 24" fill="none" xmlns="http://www.w3.org/2000/svg">
<path d="M13.7627 19.75H4.2373L9 11.5L13.7627 19.75Z" stroke="#F5F5F7" stroke-width="1.5"/>
<path d="M17.3496 1.00586C14.9718 1.12759 13.0811 3.1148 13.0811 5.54785L13.0869 5.78125C13.1082 6.20554 13.1877 6.61422 13.3164 7H14.9482C14.7147 6.5687 14.5812 6.07416 14.5811 5.54785C14.5811 3.87364 15.9243 2.5158 17.5811 2.51562C19.2378 2.51585 20.5811 3.87367 20.5811 5.54785C20.5806 7.22169 19.2375 8.57888 17.5811 8.5791C17.3555 8.57908 17.1361 8.55062 16.9248 8.50293V10.0459C17.1389 10.0775 17.3583 10.0947 17.5811 10.0947L17.8125 10.0889C20.1134 9.97098 21.9585 8.1064 22.0752 5.78125L22.0811 5.54785C22.0811 3.0365 20.0662 1.00023 17.5811 1L17.3496 1.00586Z" fill="#F5F5F7"/>
<path d="M16.6348 7.00879C16.8435 7.05184 17.0009 7.23908 17.001 7.46289V15.6426L16.9922 15.7354C16.9556 15.9165 16.8138 16.0597 16.6348 16.0967L16.543 16.1055H12.2354L11.499 14.7158H15.627V8.38965H9.37402V10.8105C9.09617 10.5889 8.65429 10.6521 8.46973 11L8 11.8857V7.46289C8.00014 7.20727 8.20531 7.00009 8.45801 7H16.543L16.6348 7.00879Z" fill="#F5F5F7"/>
</svg>
