<svg width="24" height="24" viewBox="0 0 24 24" fill="none" xmlns="http://www.w3.org/2000/svg">
<path d="M7 6.2831C7 6.10746 7.09215 5.94471 7.24275 5.85435L11.7428 3.15435C11.9011 3.05934 12.0989 3.05934 12.2572 3.15435L16.7572 5.85435C16.9079 5.94471 17 6.10746 17 6.2831V10.7169C17 10.8925 16.9079 11.0553 16.7572 11.1457L12.2572 13.8457C12.0989 13.9407 11.9011 13.9407 11.7428 13.8457L7.24275 11.1457C7.09215 11.0553 7 10.8925 7 10.7169V6.2831Z" fill="#FF5959"/>
<path d="M2.75 13.0331C2.75 12.8575 2.84215 12.6947 2.99275 12.6043L7.49275 9.90435C7.65109 9.80934 7.84891 9.80934 8.00725 9.90435L12.5072 12.6043C12.6579 12.6947 12.75 12.8575 12.75 13.0331V17.4669C12.75 17.6425 12.6579 17.8053 12.5072 17.8957L8.00725 20.5957C7.84891 20.6907 7.65109 20.6907 7.49275 20.5957L2.99275 17.8957C2.84215 17.8053 2.75 17.6425 2.75 17.4669V13.0331Z" fill="#0A84FF"/>
<path d="M11.25 13.0331C11.25 12.8575 11.3421 12.6947 11.4928 12.6043L15.9928 9.90435C16.1511 9.80934 16.3489 9.80934 16.5072 9.90435L21.0072 12.6043C21.1579 12.6947 21.25 12.8575 21.25 13.0331V17.4669C21.25 17.6425 21.1579 17.8053 21.0072 17.8957L16.5072 20.5957C16.3489 20.6907 16.1511 20.6907 15.9928 20.5957L11.4928 17.8957C11.3421 17.8053 11.25 17.6425 11.25 17.4669V13.0331Z" fill="#E396EF"/>
</svg>
