<svg width="24" height="24" viewBox="0 0 24 24" fill="none" xmlns="http://www.w3.org/2000/svg">
<path d="M20 8H18.5V5.5H16V4H20V8Z" fill="#F5F5F7"/>
<path d="M20 16H18.5V18.5H16V20H20V16Z" fill="#F5F5F7"/>
<path d="M4 8H5.5V5.5H8V4H4V8Z" fill="#F5F5F7"/>
<path d="M4 16H5.5V18.5H8V20H4V16Z" fill="#F5F5F7"/>
<mask id="path-5-inside-1_190_295" fill="white">
<path d="M13 7.5C13.2761 7.5 13.5 7.72386 13.5 8V10.5H16C16.2761 10.5 16.5 10.7239 16.5 11V16C16.5 16.2761 16.2761 16.5 16 16.5H11C10.7239 16.5 10.5 16.2761 10.5 16V13.5H8C7.72386 13.5 7.5 13.2761 7.5 13V8C7.5 7.72386 7.72386 7.5 8 7.5H13Z"/>
</mask>
<path d="M13.5 8H15V8L13.5 8ZM13.5 10.5H12V12H13.5V10.5ZM16.5 11H18V11H16.5ZM16 16.5V18V18V16.5ZM10.5 16H9V16H10.5ZM10.5 13.5H12V12H10.5V13.5ZM7.5 13H6V13H7.5ZM8 7.5V6H8L8 7.5ZM13 7.5V9C12.4477 9 12 8.55228 12 8L13.5 8L15 8C15 6.89543 14.1046 6 13 6V7.5ZM13.5 8H12V10.5H13.5H15V8H13.5ZM13.5 10.5V12H16V10.5V9H13.5V10.5ZM16 10.5V12C15.4477 12 15 11.5523 15 11H16.5H18C18 9.89543 17.1046 9 16 9V10.5ZM16.5 11H15V16H16.5H18V11H16.5ZM16.5 16H15C15 15.4477 15.4477 15 16 15V16.5V18C17.1046 18 18 17.1046 18 16H16.5ZM16 16.5V15H11V16.5V18H16V16.5ZM11 16.5V15C11.5523 15 12 15.4477 12 16H10.5H9C9 17.1046 9.89543 18 11 18V16.5ZM10.5 16H12V13.5H10.5H9V16H10.5ZM10.5 13.5V12H8V13.5V15H10.5V13.5ZM8 13.5V12C8.55228 12 9 12.4477 9 13H7.5H6C6 14.1046 6.89543 15 8 15V13.5ZM7.5 13H9V8H7.5H6V13H7.5ZM7.5 8H9C9 8.55228 8.55228 9 8 9L8 7.5L8 6C6.89543 6 6 6.89543 6 8H7.5ZM8 7.5V9H13V7.5V6H8V7.5Z" fill="#F5F5F7" mask="url(#path-5-inside-1_190_295)"/>
</svg>
