<svg width="24" height="24" viewBox="0 0 24 24" fill="none" xmlns="http://www.w3.org/2000/svg">
<path d="M20 8H18.5V5.5H16V4H20V8Z" fill="#F5F5F7"/>
<path d="M20 16H18.5V18.5H16V20H20V16Z" fill="#F5F5F7"/>
<path d="M4.5 4C4.22386 4 4 4.22386 4 4.5V8H5.5V5.5H8V4H4.5Z" fill="#F5F5F7"/>
<path d="M4 16H5.5V18.5H8V20H4V16Z" fill="#F5F5F7"/>
<path d="M12 9H9V12H12V15H15V12H12V9ZM13.5 10.5H16C16.2761 10.5 16.5 10.7239 16.5 11V16C16.5 16.2761 16.2761 16.5 16 16.5H11C10.7239 16.5 10.5 16.2761 10.5 16V13.5H8C7.72386 13.5 7.5 13.2761 7.5 13V8C7.5 7.72386 7.72386 7.5 8 7.5H13C13.2761 7.5 13.5 7.72386 13.5 8V10.5Z" fill="#F5F5F7"/>
</svg>
