<svg width="24" height="24" viewBox="0 0 24 24" fill="none" xmlns="http://www.w3.org/2000/svg">
<path d="M9 6L9 15L18 15L18 6L9 6ZM8 16.5L7.89941 16.4902C7.67145 16.4437 7.5 16.2417 7.5 16L7.5 5C7.5 4.72386 7.72386 4.5 8 4.5L19 4.5C19.2761 4.5 19.5 4.72386 19.5 5L19.5 16C19.5 16.2761 19.2761 16.5 19 16.5L8 16.5Z" fill="#F5F5F7"/>
<path d="M5.5 18.5H14V19.5C14 19.7761 13.7761 20 13.5 20H4.5L4.39941 19.9902C4.17145 19.9437 4 19.7417 4 19.5V11.5C4 11.2239 4.22386 11 4.5 11H5.5V18.5Z" fill="#F5F5F7"/>
<path d="M16.0303 10.9697L14.9697 12.0303L13.5 10.5605L12.0303 12.0303L10.9697 10.9697L13.5 8.43945L16.0303 10.9697Z" fill="#F5F5F7"/>
</svg>
