<svg width="24" height="24" viewBox="0 0 24 24" fill="none" xmlns="http://www.w3.org/2000/svg">
<path d="M4.5 5.5L4.5 18.5L19.5 18.5L19.5 5.5L4.5 5.5ZM3.5 20C3.22386 20 3 19.7761 3 19.5L3 4.5C3 4.22386 3.22386 4 3.5 4L20.5 4C20.7761 4 21 4.22386 21 4.5L21 19.5C21 19.7761 20.7761 20 20.5 20L3.5 20Z" fill="#F5F5F7"/>
<path d="M7 15L17 15" stroke="#F5F5F7" stroke-width="1.5" stroke-linejoin="round"/>
<path d="M11 12L13 12" stroke="#F5F5F7" stroke-width="1.5" stroke-linejoin="round"/>
<path d="M11 9L13 9" stroke="#F5F5F7" stroke-width="1.5" stroke-linejoin="round"/>
<path d="M7 12H9" stroke="#F5F5F7" stroke-width="1.5" stroke-linejoin="round"/>
<path d="M7 9H9" stroke="#F5F5F7" stroke-width="1.5" stroke-linejoin="round"/>
<path d="M15 12L17 12" stroke="#F5F5F7" stroke-width="1.5" stroke-linejoin="round"/>
<path d="M15 9L17 9" stroke="#F5F5F7" stroke-width="1.5" stroke-linejoin="round"/>
</svg>
