<svg width="24" height="24" viewBox="0 0 24 24" fill="none" xmlns="http://www.w3.org/2000/svg">
<path d="M15.25 12C15.25 10.2051 13.7949 8.75 12 8.75C10.2051 8.75 8.75 10.2051 8.75 12C8.75 13.7949 10.2051 15.25 12 15.25C13.7949 15.25 15.25 13.7949 15.25 12ZM16.75 12C16.75 14.6234 14.6234 16.75 12 16.75C9.37665 16.75 7.25 14.6234 7.25 12C7.25 9.37665 9.37665 7.25 12 7.25C14.6234 7.25 16.75 9.37665 16.75 12Z" fill="#F5F5F7"/>
<path d="M12.75 2.50026H11.2501V5H12.75V2.50026Z" fill="#F5F5F7"/>
<path d="M12.75 19.0003H11.2501V21.5H12.75V19.0003Z" fill="#F5F5F7"/>
<path d="M18.849 5.41434L17.7885 4.3538L16.0209 6.12138L17.0814 7.18192L18.849 5.41434Z" fill="#F5F5F7"/>
<path d="M7.18176 17.0816L6.12122 16.0211L4.35364 17.7886L5.41418 18.8492L7.18176 17.0816Z" fill="#F5F5F7"/>
<path d="M4.35382 5.41434L5.41437 4.3538L7.18195 6.12138L6.1214 7.18192L4.35382 5.41434Z" fill="#F5F5F7"/>
<path d="M16.0211 17.0816L17.0816 16.0211L18.8492 17.7886L17.7886 18.8492L16.0211 17.0816Z" fill="#F5F5F7"/>
<path d="M21.4997 12.7499L21.4997 11.2501L19 11.2501L19 12.7499L21.4997 12.7499Z" fill="#F5F5F7"/>
<path d="M4.99971 12.7499L4.99971 11.2501L2.49998 11.2501L2.49998 12.7499L4.99971 12.7499Z" fill="#F5F5F7"/>
</svg>
