<svg width="24" height="24" viewBox="0 0 24 24" fill="none" xmlns="http://www.w3.org/2000/svg">
<path d="M19.65 8.84499C19.65 6.89896 18.0382 5.32136 16.05 5.32136C14.8337 5.32136 13.7577 5.9105 13.1039 6.81908C12.851 7.17054 12.4392 7.37997 12 7.37997C11.5608 7.37997 11.149 7.17054 10.8961 6.81908C10.2423 5.9105 9.16633 5.32136 7.95 5.32136C5.96178 5.32136 4.35 6.89896 4.35 8.84499C4.35 10.7902 5.5579 13.0172 7.33037 14.9795C8.91174 16.7303 10.7278 18.0311 12 18.5814C13.2722 18.0311 15.0883 16.7303 16.6696 14.9795C18.4421 13.0172 19.65 10.7902 19.65 8.84499ZM21 8.84499C21 13.69 15.15 18.9754 12 20C8.85 18.9754 3 13.69 3 8.84499C3 6.16919 5.21619 4 7.95 4C9.62414 4 11.1042 4.81349 12 6.05861C12.8958 4.81349 14.3759 4 16.05 4C18.7838 4 21 6.16919 21 8.84499Z" fill="#F5F5F7"/>
</svg>
