<svg width="24" height="24" viewBox="0 0 24 24" fill="none" xmlns="http://www.w3.org/2000/svg">
<path d="M20.5 8.5C20.5 6.29088 18.7091 4.5 16.5 4.5C15.1485 4.5 13.953 5.16878 13.2266 6.2002C12.9456 6.59918 12.488 6.83692 12 6.83692C11.512 6.83692 11.0544 6.59918 10.7734 6.2002C10.047 5.16878 8.85148 4.5 7.5 4.5C5.29086 4.5 3.5 6.29088 3.5 8.5C3.5 10.7082 4.84211 13.2362 6.81152 15.4639C8.5686 17.4513 10.5864 18.9281 12 19.5527C13.4136 18.9281 15.4314 17.4513 17.1885 15.4639C19.1579 13.2362 20.5 10.7082 20.5 8.5ZM22 8.5C22 14 15.5 20 12 21.1631C8.5 20 2 14 2 8.5C2 5.46245 4.46244 3 7.5 3C9.36015 3 11.0047 3.92346 12 5.33692C12.9953 3.92346 14.6398 3 16.5 3C19.5375 3 22 5.46245 22 8.5Z" fill="#F5F5F7"/>
</svg>
