<svg width="24" height="24" viewBox="0 0 24 24" fill="none" xmlns="http://www.w3.org/2000/svg">
<g clip-path="url(#paint0_angular_367_648_clip_path)" data-figma-skip-parse="true"><g transform="matrix(0 0.009 -0.009 0 12 12)"><foreignObject x="-1166.67" y="-1166.67" width="2333.33" height="2333.33"><div xmlns="http://www.w3.org/1999/xhtml" style="background:conic-gradient(from 90deg,rgba(245, 245, 247, 1) 0deg,rgba(228, 228, 230, 0) 360deg);height:100%;width:100%;opacity:1"></div></foreignObject></g></g><path d="M19.5 12C19.5 7.85786 16.1421 4.5 12 4.5C7.85786 4.5 4.5 7.85786 4.5 12C4.5 16.1421 7.85786 19.5 12 19.5V21C7.02944 21 3 16.9706 3 12C3 7.02944 7.02944 3 12 3C16.9706 3 21 7.02944 21 12C21 16.9706 16.9706 21 12 21V19.5C16.1421 19.5 19.5 16.1421 19.5 12Z" data-figma-gradient-fill="{&#34;type&#34;:&#34;GRADIENT_ANGULAR&#34;,&#34;stops&#34;:[{&#34;color&#34;:{&#34;r&#34;:0.96078431606292725,&#34;g&#34;:0.96078431606292725,&#34;b&#34;:0.96862745285034180,&#34;a&#34;:1.0},&#34;position&#34;:0.0},{&#34;color&#34;:{&#34;r&#34;:0.89411765336990356,&#34;g&#34;:0.89411765336990356,&#34;b&#34;:0.90196079015731812,&#34;a&#34;:0.0},&#34;position&#34;:1.0}],&#34;stopsVar&#34;:[{&#34;color&#34;:{&#34;r&#34;:0.96078431606292725,&#34;g&#34;:0.96078431606292725,&#34;b&#34;:0.96862745285034180,&#34;a&#34;:1.0},&#34;position&#34;:0.0},{&#34;color&#34;:{&#34;r&#34;:0.89411765336990356,&#34;g&#34;:0.89411765336990356,&#34;b&#34;:0.90196079015731812,&#34;a&#34;:0.0},&#34;position&#34;:1.0}],&#34;transform&#34;:{&#34;m00&#34;:1.1021821408568715e-15,&#34;m01&#34;:-18.0,&#34;m02&#34;:21.0,&#34;m10&#34;:18.0,&#34;m11&#34;:1.1021821408568715e-15,&#34;m12&#34;:3.0},&#34;opacity&#34;:1.0,&#34;blendMode&#34;:&#34;NORMAL&#34;,&#34;visible&#34;:true}"/>
<path d="M12.75 20.25C12.75 20.6642 12.4142 21 12 21C11.5858 21 11.25 20.6642 11.25 20.25C11.25 19.8358 11.5858 19.5 12 19.5C12.4142 19.5 12.75 19.8358 12.75 20.25Z" fill="#F0F0F2"/>
<defs>
<clipPath id="paint0_angular_367_648_clip_path"><path d="M19.5 12C19.5 7.85786 16.1421 4.5 12 4.5C7.85786 4.5 4.5 7.85786 4.5 12C4.5 16.1421 7.85786 19.5 12 19.5V21C7.02944 21 3 16.9706 3 12C3 7.02944 7.02944 3 12 3C16.9706 3 21 7.02944 21 12C21 16.9706 16.9706 21 12 21V19.5C16.1421 19.5 19.5 16.1421 19.5 12Z"/></clipPath></defs>
</svg>
