<svg width="24" height="24" viewBox="0 0 24 24" fill="none" xmlns="http://www.w3.org/2000/svg">
<path d="M20 8H18.5V5.5H16V4H20V8Z" fill="#F5F5F7"/>
<path d="M20 14H18.5V16.5H16V18H20V14Z" fill="#F5F5F7"/>
<path d="M6.5 4C6.22386 4 6 4.22386 6 4.5V8H7.5V5.5H10V4H6.5Z" fill="#F5F5F7"/>
<path d="M12.9759 9.10926C13.7921 8.78297 14.6018 9.59266 14.2755 10.4088L10.4762 19.9078C10.1542 20.7121 9.05817 20.7386 8.67115 20.0197L8.60348 19.8664L7.28525 16.0995L3.51838 14.7813L3.36509 14.7136C2.6462 14.3266 2.67264 13.2306 3.47695 12.9086L12.9759 9.10926ZM5.27303 13.8056L8.46261 14.9222L9.57851 18.1111L12.4498 10.935L5.27303 13.8056Z" fill="#F5F5F7"/>
</svg>
