<svg width="24" height="24" viewBox="0 0 24 24" fill="none" xmlns="http://www.w3.org/2000/svg">
<path d="M19.5303 5.53027L14.5303 10.5303L13.4697 9.46973L18.4697 4.46973L19.5303 5.53027Z" fill="#F5F5F7"/>
<path d="M19.5303 18.4697L14.5303 13.4697L13.4697 14.5303L18.4697 19.5303L19.5303 18.4697Z" fill="#F5F5F7"/>
<path d="M4.46973 5.53027L9.46973 10.5303L10.5303 9.46973L5.53027 4.46973L4.46973 5.53027Z" fill="#F5F5F7"/>
<path d="M4.46973 18.4697L9.46973 13.4697L10.5303 14.5303L5.53027 19.5303L4.46973 18.4697Z" fill="#F5F5F7"/>
<path d="M20 9H18.5V5.5H15V4H20V9Z" fill="#F5F5F7"/>
<path d="M20 15H18.5V18.5H15V20H20V15Z" fill="#F5F5F7"/>
<path d="M4 9H5.5V5.5H9V4H4V9Z" fill="#F5F5F7"/>
<path d="M4 15H5.5V18.5H9V20H4V15Z" fill="#F5F5F7"/>
</svg>
