<svg width="24" height="24" viewBox="0 0 24 24" fill="none" xmlns="http://www.w3.org/2000/svg">
<path d="M19.5303 5.53027L14.5303 10.5303L13.4697 9.46973L18.4697 4.46973L19.5303 5.53027Z" fill="#F5F5F7"/>
<path d="M19.5303 18.4697L14.5303 13.4697L13.4697 14.5303L18.4697 19.5303L19.5303 18.4697Z" fill="#F5F5F7"/>
<path d="M4.46973 5.53027L9.46973 10.5303L10.5303 9.46973L5.53027 4.46973L4.46973 5.53027Z" fill="#F5F5F7"/>
<path d="M4.46973 18.4697L9.46973 13.4697L10.5303 14.5303L5.53027 19.5303L4.46973 18.4697Z" fill="#F5F5F7"/>
<path d="M19.5 4C19.7761 4 20 4.22386 20 4.5V9H18.5V6C18.5 5.72386 18.2761 5.5 18 5.5H15V4H19.5Z" fill="#F5F5F7"/>
<path d="M19.5 20C19.7761 20 20 19.7761 20 19.5V15H18.5V18.5H15V20H19.5Z" fill="#F5F5F7"/>
<path d="M4.5 4C4.22386 4 4 4.22386 4 4.5V9H5.5V5.5H9V4H4.5Z" fill="#F5F5F7"/>
<path d="M4.5 20C4.22386 20 4 19.7761 4 19.5V15H5.5V18.5H9V20H4.5Z" fill="#F5F5F7"/>
</svg>
