<svg width="24" height="24" viewBox="0 0 24 24" fill="none" xmlns="http://www.w3.org/2000/svg">
<path d="M12 3.75C16.5563 3.75 20.25 7.44365 20.25 12C20.25 16.5563 16.5563 20.25 12 20.25C7.44365 20.25 3.75 16.5563 3.75 12C3.75 7.44365 7.44365 3.75 12 3.75Z" stroke="#F5F5F7" stroke-width="1.5" stroke-linejoin="round"/>
<path d="M12.4629 9.00391C17.2183 9.08421 21 10.3949 21 12L20.9883 12.1543C20.7474 13.7395 16.8153 15 12 15L11.5371 14.9961C10.8953 14.9853 10.2713 14.9499 9.67188 14.8965C9.61325 14.4132 9.56872 13.9056 9.54004 13.3779C10.3104 13.4557 11.1361 13.5 12 13.5C14.3689 13.5 16.4514 13.1777 17.8896 12.6982C18.604 12.4601 19.0794 12.2087 19.3496 12C19.0794 11.7913 18.604 11.5399 17.8896 11.3018C16.4514 10.8223 14.3689 10.5 12 10.5C11.1361 10.5 10.3104 10.5434 9.54004 10.6211C9.56876 10.0931 9.61317 9.58514 9.67188 9.10156C10.4145 9.03546 11.1949 9 12 9L12.4629 9.00391ZM8.1377 9.28906C8.08552 9.78519 8.04831 10.3 8.02539 10.8291C7.30599 10.9573 6.661 11.1182 6.11035 11.3018C5.39549 11.54 4.91948 11.7912 4.64941 12C4.91948 12.2088 5.39549 12.46 6.11035 12.6982C6.66144 12.8819 7.30725 13.0416 8.02734 13.1699C8.05023 13.6988 8.08851 14.2131 8.14062 14.709C5.10134 14.2273 3 13.1964 3 12C3 10.8039 5.09979 9.77089 8.1377 9.28906Z" fill="#F5F5F7"/>
<path d="M12 3C13.6569 3 15 7.02944 15 12L14.9971 12.3154C14.5185 12.3758 14.0155 12.4222 13.4922 12.4531C13.4948 12.3033 13.5 12.1523 13.5 12C13.5 9.63107 13.1777 7.54865 12.6982 6.11035C12.46 5.39549 12.2088 4.91948 12 4.64941C11.7912 4.91948 11.54 5.39549 11.3018 6.11035C10.8223 7.54865 10.5 9.63107 10.5 12C10.5 14.3689 10.8223 16.4514 11.3018 17.8896C11.5399 18.604 11.7913 19.0794 12 19.3496C12.2087 19.0794 12.4601 18.604 12.6982 17.8896C13.0399 16.8645 13.2986 15.512 13.4209 13.9619C13.9414 13.9344 14.4469 13.8918 14.9336 13.8359C14.651 17.9259 13.4471 21 12 21L11.8457 20.9883C10.3117 20.7551 9.08162 17.065 9.00391 12.4629L9 12C9 7.02944 10.3431 3 12 3Z" fill="#F5F5F7"/>
</svg>
