<svg width="24" height="24" viewBox="0 0 24 24" fill="none" xmlns="http://www.w3.org/2000/svg">
<path d="M19.5 12C19.5 7.85786 16.1421 4.5 12 4.5C7.85786 4.5 4.5 7.85786 4.5 12C4.5 16.1421 7.85786 19.5 12 19.5V21C7.02944 21 3 16.9706 3 12C3 7.02944 7.02944 3 12 3C16.9706 3 21 7.02944 21 12C21 16.9706 16.9706 21 12 21V19.5C16.1421 19.5 19.5 16.1421 19.5 12Z" fill="#F5F5F7"/>
<path d="M14.5 12C14.5 9.67436 14.0783 7.64088 13.458 6.24512C13.147 5.54535 12.8148 5.07213 12.5225 4.79395C12.238 4.52329 12.0642 4.5 12 4.5C11.9358 4.5 11.762 4.52329 11.4775 4.79395C11.1852 5.07213 10.853 5.54535 10.542 6.24512C9.92166 7.64088 9.5 9.67436 9.5 12C9.5 14.3256 9.92166 16.3591 10.542 17.7549C10.853 18.4547 11.1852 18.9279 11.4775 19.2061C11.762 19.4767 11.9358 19.5 12 19.5V21C9.79086 21 8 16.9706 8 12C8 7.02944 9.79086 3 12 3C14.2091 3 16 7.02944 16 12C16 16.9706 14.2091 21 12 21V19.5C12.0642 19.5 12.238 19.4767 12.5225 19.2061C12.8148 18.9279 13.147 18.4547 13.458 17.7549C14.0783 16.3591 14.5 14.3256 14.5 12Z" fill="#F5F5F7"/>
<path d="M20.165 10.5L20.835 11.8418L20.8193 11.8496C20.8109 11.8537 20.7985 11.8595 20.7842 11.8662C20.7556 11.8797 20.7156 11.8981 20.6641 11.9209C20.5602 11.9668 20.4095 12.0306 20.2139 12.1055C19.8224 12.2554 19.2489 12.4516 18.502 12.6465C17.0076 13.0363 14.8188 13.4209 12 13.4209C9.18121 13.4209 6.99243 13.0363 5.49805 12.6465C4.75111 12.4516 4.17762 12.2554 3.78613 12.1055C3.59054 12.0306 3.43984 11.9668 3.33594 11.9209C3.28445 11.8981 3.24437 11.8797 3.21582 11.8662C3.20148 11.8595 3.18913 11.8537 3.18066 11.8496L3.16699 11.8428L3.16602 11.8418L3.83496 10.5L3.83594 10.501C3.83916 10.5025 3.84552 10.5055 3.85449 10.5098C3.87245 10.5182 3.90257 10.5318 3.94336 10.5498C4.02497 10.5859 4.15218 10.6396 4.32324 10.7051C4.66611 10.8364 5.18669 11.0152 5.87695 11.1953C7.25757 11.5555 9.31889 11.9209 12 11.9209C14.6811 11.9209 16.7424 11.5555 18.123 11.1953C18.8133 11.0152 19.3339 10.8364 19.6768 10.7051C19.8478 10.6396 19.975 10.5859 20.0566 10.5498C20.0974 10.5318 20.1276 10.5182 20.1455 10.5098C20.1545 10.5055 20.1608 10.5025 20.1641 10.501L20.165 10.5Z" fill="#F5F5F7"/>
</svg>
