<svg width="24" height="24" viewBox="0 0 24 24" fill="none" xmlns="http://www.w3.org/2000/svg">
<path d="M20 3.25C20.4142 3.25 20.75 3.58579 20.75 4V14C20.75 14.1755 20.6885 14.3457 20.5762 14.4805L15.5762 20.4805C15.4337 20.6513 15.2225 20.75 15 20.75H4C3.58579 20.75 3.25 20.4142 3.25 20V10C3.25 9.82455 3.31151 9.65432 3.42383 9.51953L8.42383 3.51953L8.48047 3.45898C8.61936 3.32559 8.80531 3.25 9 3.25H20ZM4.75 10.2715V19.25H14.6484L19.25 13.7275V4.75H9.35156L4.75 10.2715Z" fill="#F5F5F7"/>
<path d="M14.25 19.5V10C14.25 9.58579 14.5858 9.25 15 9.25C15.4142 9.25 15.75 9.58579 15.75 10V19.5C15.75 19.9142 15.4142 20.25 15 20.25C14.5858 20.25 14.25 19.9142 14.25 19.5Z" fill="#F5F5F7"/>
<path d="M15 9.25C15.4142 9.25 15.75 9.58579 15.75 10C15.75 10.4142 15.4142 10.75 15 10.75L4 10.75C3.58579 10.75 3.25 10.4142 3.25 10C3.25 9.58579 3.58579 9.25 4 9.25L15 9.25Z" fill="#F5F5F7"/>
<path d="M19.4238 3.51953C19.689 3.2015 20.1623 3.15871 20.4805 3.42383C20.7985 3.68903 20.8413 4.16233 20.5762 4.48047L15.5762 10.4805C15.311 10.7985 14.8377 10.8413 14.5195 10.5762C14.2015 10.311 14.1587 9.83768 14.4238 9.51953L19.4238 3.51953Z" fill="#F5F5F7"/>
</svg>
