<svg width="24" height="24" viewBox="0 0 24 24" fill="none" xmlns="http://www.w3.org/2000/svg">
<path d="M12 3.75C16.5563 3.75 20.25 7.44365 20.25 12C20.25 16.5563 16.5563 20.25 12 20.25C7.44365 20.25 3.75 16.5563 3.75 12C3.75 7.44365 7.44365 3.75 12 3.75Z" stroke="#F5F5F7" stroke-width="1.5" stroke-linejoin="round"/>
<path d="M12 3C13.6298 3 14.9541 6.89869 14.9971 11.7568C14.5204 11.8371 14.0192 11.8982 13.498 11.9395C13.4926 9.5956 13.1736 7.53638 12.6982 6.11035C12.46 5.39549 12.2088 4.91948 12 4.64941C11.7912 4.91948 11.54 5.39549 11.3018 6.11035C10.8223 7.54865 10.5 9.63107 10.5 12C10.5 14.3689 10.8223 16.4514 11.3018 17.8896C11.5399 18.604 11.7913 19.0794 12 19.3496C12.2087 19.0794 12.4601 18.604 12.6982 17.8896C13.0409 16.8617 13.3 15.5046 13.4219 13.9492C13.9434 13.9124 14.4499 13.8551 14.9375 13.7803C14.6621 17.898 13.4537 21 12 21L11.8457 20.9883C10.3117 20.7551 9.08162 17.065 9.00391 12.4629L9 12C9 7.02944 10.3431 3 12 3Z" fill="#F5F5F7"/>
<path d="M2.99854 11.9985C2.99853 10.9471 4.62152 10.0235 7.07764 9.48779C7.02739 9.99164 7.00028 10.5124 6.99853 11.0454C6.68033 11.1242 6.38283 11.209 6.10889 11.3003C5.39403 11.5386 4.91801 11.7897 4.64795 11.9985C4.91801 12.2073 5.39403 12.4585 6.10889 12.6968C7.54718 13.1762 9.62961 13.4985 11.9985 13.4985C14.3675 13.4985 16.4499 13.1762 17.8882 12.6968C18.6025 12.4587 19.078 12.2072 19.3481 11.9985C19.078 11.7898 18.6025 11.5384 17.8882 11.3003C16.4499 10.8209 14.3675 10.4985 11.9985 10.4985C10.9309 10.4985 9.92191 10.5673 9.00342 10.6831C9.01743 10.1546 9.05829 9.64376 9.12158 9.15576C10.025 9.05424 10.9924 8.99853 11.9985 8.99853L12.4614 9.00244C17.2169 9.08275 20.9985 10.3934 20.9985 11.9985L20.9868 12.1528C20.7537 13.6869 17.0636 14.9169 12.4614 14.9946L11.9985 14.9985C7.02797 14.9985 2.99854 13.6554 2.99854 11.9985Z" fill="#F5F5F7"/>
</svg>
