<svg width="24" height="24" viewBox="0 0 24 24" fill="none" xmlns="http://www.w3.org/2000/svg">
<path d="M19.5 12C19.5 7.85786 16.1421 4.5 12 4.5C7.85786 4.5 4.5 7.85786 4.5 12C4.5 16.1421 7.85786 19.5 12 19.5V21C7.02944 21 3 16.9706 3 12C3 7.02944 7.02944 3 12 3C16.9706 3 21 7.02944 21 12C21 16.9706 16.9706 21 12 21V19.5C16.1421 19.5 19.5 16.1421 19.5 12Z" fill="#F5F5F7"/>
<path d="M20 11.25V12.75H4V11.25H20Z" fill="#F5F5F7"/>
<path d="M14.5 12C14.5 9.67436 14.0783 7.64088 13.458 6.24512C13.147 5.54535 12.8148 5.07213 12.5225 4.79395C12.238 4.52329 12.0642 4.5 12 4.5C11.9358 4.5 11.762 4.52329 11.4775 4.79395C11.1852 5.07213 10.853 5.54535 10.542 6.24512C9.92166 7.64088 9.5 9.67436 9.5 12C9.5 14.3256 9.92166 16.3591 10.542 17.7549C10.853 18.4547 11.1852 18.9279 11.4775 19.2061C11.762 19.4767 11.9358 19.5 12 19.5V21C9.79086 21 8 16.9706 8 12C8 7.02944 9.79086 3 12 3C14.2091 3 16 7.02944 16 12C16 16.9706 14.2091 21 12 21V19.5C12.0642 19.5 12.238 19.4767 12.5225 19.2061C12.8148 18.9279 13.147 18.4547 13.458 17.7549C14.0783 16.3591 14.5 14.3256 14.5 12Z" fill="#F5F5F7"/>
</svg>
