<svg width="24" height="24" viewBox="0 0 24 24" fill="none" xmlns="http://www.w3.org/2000/svg">
<path d="M19.5 12C19.5 7.85786 16.1421 4.5 12 4.5C7.85786 4.5 4.5 7.85786 4.5 12C4.5 16.1421 7.85786 19.5 12 19.5V21C7.02944 21 3 16.9706 3 12C3 7.02944 7.02944 3 12 3C16.9706 3 21 7.02944 21 12C21 16.9706 16.9706 21 12 21V19.5C16.1421 19.5 19.5 16.1421 19.5 12Z" fill="#F5F5F7"/>
<path d="M14.5 12C14.5 9.67436 14.0783 7.64088 13.458 6.24512C13.147 5.54535 12.8148 5.07213 12.5225 4.79395C12.238 4.52329 12.0642 4.5 12 4.5C11.9358 4.5 11.762 4.52329 11.4775 4.79395C11.1852 5.07213 10.853 5.54535 10.542 6.24512C9.92166 7.64088 9.5 9.67436 9.5 12C9.5 14.3256 9.92166 16.3591 10.542 17.7549C10.853 18.4547 11.1852 18.9279 11.4775 19.2061C11.762 19.4767 11.9358 19.5 12 19.5V21C9.79086 21 8 16.9706 8 12C8 7.02944 9.79086 3 12 3C14.2091 3 16 7.02944 16 12C16 16.9706 14.2091 21 12 21V19.5C12.0642 19.5 12.238 19.4767 12.5225 19.2061C12.8148 18.9279 13.147 18.4547 13.458 17.7549C14.0783 16.3591 14.5 14.3256 14.5 12Z" fill="#F5F5F7"/>
<path d="M20.165 10.8291L20.835 12.1709L20.8193 12.1787C20.8109 12.1828 20.7985 12.1886 20.7842 12.1953C20.7556 12.2088 20.7156 12.2272 20.6641 12.25C20.5602 12.2959 20.4095 12.3597 20.2139 12.4346C19.8224 12.5845 19.2489 12.7807 18.502 12.9756C17.0076 13.3654 14.8188 13.75 12 13.75C9.18121 13.75 6.99243 13.3654 5.49805 12.9756C4.75111 12.7807 4.17762 12.5845 3.78613 12.4346C3.59054 12.3597 3.43984 12.2959 3.33594 12.25C3.28445 12.2272 3.24437 12.2088 3.21582 12.1953C3.20148 12.1886 3.18913 12.1828 3.18066 12.1787L3.16699 12.1719L3.16602 12.1709L3.83496 10.8291L3.83594 10.8301C3.83916 10.8316 3.84552 10.8346 3.85449 10.8389C3.87245 10.8473 3.90257 10.8609 3.94336 10.8789C4.02497 10.915 4.15218 10.9687 4.32324 11.0342C4.66611 11.1655 5.18669 11.3443 5.87695 11.5244C7.25757 11.8846 9.31889 12.25 12 12.25C14.6811 12.25 16.7424 11.8846 18.123 11.5244C18.8133 11.3443 19.3339 11.1655 19.6768 11.0342C19.8478 10.9687 19.975 10.915 20.0566 10.8789C20.0974 10.8609 20.1276 10.8473 20.1455 10.8389C20.1545 10.8346 20.1608 10.8316 20.1641 10.8301L20.165 10.8291Z" fill="#F5F5F7"/>
</svg>
