<svg width="24" height="24" viewBox="0 0 24 24" fill="none" xmlns="http://www.w3.org/2000/svg">
<path d="M14.5 18C14.5 19.3807 13.3807 20.5 12 20.5C10.6193 20.5 9.5 19.3807 9.5 18H11C11 18.5523 11.4477 19 12 19C12.5523 19 13 18.5523 13 18H14.5Z" fill="#F5F5F7"/>
<path d="M15.5 9C15.5 7.067 13.933 5.5 12 5.5C10.067 5.5 8.5 7.067 8.5 9V14.5H15.5V9ZM17 16H7V9C7 6.23858 9.23858 4 12 4C14.7614 4 17 6.23858 17 9V16Z" fill="#F5F5F7"/>
<path d="M19 14.75V16.25H5.00002V14.75H19Z" fill="#F5F5F7"/>
</svg>
