<svg width="24" height="24" viewBox="0 0 24 24" fill="none" xmlns="http://www.w3.org/2000/svg">
<path d="M14.5 18C14.5 19.3807 13.3807 20.5 12 20.5C10.6193 20.5 9.5 19.3807 9.5 18H11C11 18.5523 11.4477 19 12 19C12.5523 19 13 18.5523 13 18H14.5Z" fill="#F5F5F7"/>
<mask id="path-2-inside-1_209_310" fill="white">
<path d="M12 4C14.7614 4 17 6.23858 17 9V16H7V9C7 6.23858 9.23858 4 12 4Z"/>
</mask>
<path d="M17 16V17.5H18.5V16H17ZM7 16H5.5V17.5H7V16ZM12 4V5.5C13.933 5.5 15.5 7.067 15.5 9H17H18.5C18.5 5.41015 15.5899 2.5 12 2.5V4ZM17 9H15.5V16H17H18.5V9H17ZM17 16V14.5H7V16V17.5H17V16ZM7 16H8.5V9H7H5.5V16H7ZM7 9H8.5C8.5 7.067 10.067 5.5 12 5.5V4V2.5C8.41015 2.5 5.5 5.41015 5.5 9H7Z" fill="#F5F5F7" mask="url(#path-2-inside-1_209_310)"/>
<path d="M19 14.75V16.25H5V14.75H19Z" fill="#F5F5F7"/>
</svg>
