<svg width="24" height="24" viewBox="0 0 24 24" fill="none" xmlns="http://www.w3.org/2000/svg">
<path d="M11.2501 3.6005V9.67157H12.7499V3.6005H11.2501Z" fill="#F5F5F7"/>
<path d="M11.2501 20.321V14.2499H12.7499V20.321H11.2501Z" fill="#F5F5F7"/>
<path d="M3.60045 11.0355L9.67152 11.0355L9.67152 12.5354L3.60045 12.5354L3.60045 11.0355Z" fill="#F5F5F7"/>
<path d="M20.321 11.0355L14.2499 11.0355L14.2499 12.5354L20.321 12.5354L20.321 11.0355Z" fill="#F5F5F7"/>
<path d="M12.3535 2.85356C12.1583 2.65829 11.8417 2.6583 11.6464 2.85356L8.46445 6.03554L9.52511 7.0962L12 4.62132L14.4749 7.0962L15.5355 6.03554L12.3535 2.85356Z" fill="#F5F5F7"/>
<path d="M12.3535 21.0679C12.1583 21.2632 11.8417 21.2632 11.6464 21.0679L8.46445 17.886L9.52511 16.8253L12 19.3002L14.4749 16.8253L15.5355 17.886L12.3535 21.0679Z" fill="#F5F5F7"/>
<path d="M2.85354 12.139C2.65828 11.9437 2.65828 11.6271 2.85354 11.4319L6.03552 8.2499L7.09618 9.31056L4.62131 11.7854L7.09618 14.2603L6.03552 15.321L2.85354 12.139Z" fill="#F5F5F7"/>
<path d="M21.0679 12.139C21.2632 11.9437 21.2632 11.6271 21.0679 11.4319L17.8859 8.2499L16.8253 9.31056L19.3001 11.7854L16.8253 14.2603L17.8859 15.321L21.0679 12.139Z" fill="#F5F5F7"/>
</svg>
