<svg width="24" height="24" viewBox="0 0 24 24" fill="none" xmlns="http://www.w3.org/2000/svg">
<path d="M1.62131 12.0947L2.54426 10.9073L4.42943 12.3726L5.89537 10.4867L7.08353 11.4103L4.69464 14.4836L1.62131 12.0947Z" fill="#F5F5F7"/>
<path d="M22.4753 11.3495L21.579 12.5571L19.6617 11.1342L18.2381 13.0523L17.0297 12.1554L19.3495 9.02966L22.4753 11.3495Z" fill="#F5F5F7"/>
<rect x="12.0213" y="9.9" width="3" height="3" transform="rotate(45 12.0213 9.9)" fill="#F5F5F7"/>
<path d="M12.25 3C14.9443 3 17.3529 4.2187 18.958 6.13379L17.9893 7.32227C16.6634 5.60617 14.5864 4.5 12.25 4.5C8.24593 4.5 5 7.74593 5 11.75C5 12.444 5.10015 13.1145 5.28223 13.75H3.73242C3.58214 13.1075 3.5 12.4383 3.5 11.75C3.5 6.91751 7.41751 3 12.25 3Z" fill="#F5F5F7"/>
<path d="M11.708 20.75C9.01375 20.75 6.60509 19.5313 5 17.6162L5.96875 16.4277C7.29463 18.1438 9.37161 19.25 11.708 19.25C15.7121 19.25 18.958 16.0041 18.958 12C18.958 11.306 18.8579 10.6355 18.6758 10H20.2256C20.3759 10.6425 20.458 11.3117 20.458 12C20.458 16.8325 16.5405 20.75 11.708 20.75Z" fill="#F5F5F7"/>
</svg>
