<svg width="24" height="24" viewBox="0 0 24 24" fill="none" xmlns="http://www.w3.org/2000/svg">
<path d="M19.5 4C19.7761 4 20 4.22386 20 4.5V19.5C20 19.7417 19.8286 19.9437 19.6006 19.9902L19.5 20H15V18.5H18.5V5.5H5.5V9H4V4.5C4 4.22386 4.22386 4 4.5 4H19.5Z" fill="#F5F5F7"/>
<path d="M14.5 9C14.7761 9 15 9.22386 15 9.5V14H13.5V11C13.5 10.7239 13.2761 10.5 13 10.5H10V9H14.5Z" fill="#F5F5F7"/>
<path d="M5.5 18.5H9.5V14.5H5.5V18.5ZM11 19.5L10.9902 19.6006C10.9503 19.7961 10.7961 19.9503 10.6006 19.9902L10.5 20H4.5C4.25829 20 4.05629 19.8286 4.00977 19.6006L4 19.5V13.5C4 13.2239 4.22386 13 4.5 13H10.5L10.6006 13.0098C10.8286 13.0563 11 13.2583 11 13.5V19.5Z" fill="#F5F5F7"/>
<path d="M14.5303 10.5303L10.5303 14.5303L9.46973 13.4697L13.4697 9.46973L14.5303 10.5303Z" fill="#F5F5F7"/>
</svg>
