<svg width="24" height="24" viewBox="0 0 24 24" fill="none" xmlns="http://www.w3.org/2000/svg">
<path fill-rule="evenodd" clip-rule="evenodd" d="M18.5 21C19.3284 21 20 20.2836 20 19.4C20 18.8109 19.5 18.0109 18.5 17C17.5 18.0109 17 18.8109 17 19.4C17 20.2836 17.6716 21 18.5 21Z" fill="#F5F5F7"/>
<path d="M12.6619 5.2373L11.6013 6.29785L9.83374 4.53027L10.8943 3.46973L12.6619 5.2373Z" fill="#F5F5F7"/>
<path d="M10.8897 5.24233C11.3516 4.78041 12.0839 4.75604 12.5742 5.16616L12.669 5.25307L18.6299 11.3712C19.1072 11.8612 19.1018 12.6435 18.6182 13.1271L11.5479 20.1984C11.0553 20.691 10.2548 20.6856 9.76858 20.1867L3.80764 14.0695C3.33024 13.5796 3.33468 12.7963 3.81838 12.3126L10.8897 5.24233ZM5.05373 13.1984L10.666 18.9582L17.3828 12.2404L11.7715 6.48061L5.05373 13.1984Z" fill="#F5F5F7"/>
<path d="M5.29588 11.2402C5.43919 10.8518 5.87117 10.6527 6.25974 10.7959L15.7597 14.2959C16.1482 14.4392 16.3472 14.8712 16.2041 15.2598C16.0608 15.6482 15.6288 15.8473 15.2402 15.7041L5.74021 12.2041C5.35175 12.0608 5.15272 11.6288 5.29588 11.2402Z" fill="#F5F5F7"/>
</svg>
