<svg width="24" height="24" viewBox="0 0 24 24" fill="none" xmlns="http://www.w3.org/2000/svg">
<g clip-path="url(#clip0_530_29)">
<path d="M12.6953 11.7637C12.8496 11.8838 12.8496 12.1162 12.6953 12.2363L4.48437 18.623C4.31191 18.7572 4.07027 18.6667 4.01269 18.4746L4 18.3867L4.30078 18.3867L4 18.001V5.61328C4.00008 5.3637 4.28734 5.2237 4.48437 5.37695L12.6953 11.7637ZM4 18.3867V18.001L4.30078 18.3867L4 18.3867ZM5.5 8.0664L5.5 15.9336L10.5566 12L5.5 8.0664Z" fill="#F5F5F7"/>
<path d="M20.6953 11.7637C20.8496 11.8838 20.8496 12.1162 20.6953 12.2363L12.4844 18.623C12.3119 18.7572 12.0703 18.6667 12.0127 18.4746L12 18.3867L12.3008 18.3867L12 18.001V5.61328C12.0001 5.3637 12.2873 5.2237 12.4844 5.37695L20.6953 11.7637ZM12 18.3867L12 18.001L12.3008 18.3867L12 18.3867ZM13.5 8.0664V15.9336L18.5566 12L13.5 8.0664Z" fill="#F5F5F7"/>
</g>
<defs>
<clipPath id="clip0_530_29">
<rect width="24" height="24" fill="white"/>
</clipPath>
</defs>
</svg>
