<svg width="24" height="24" viewBox="0 0 24 24" fill="none" xmlns="http://www.w3.org/2000/svg">
<path d="M14 6H20C20.2761 6 20.5 6.22386 20.5 6.5V12H19V7.5H13.6113L13.2715 7.31152L9.11035 5H5V19H7.5V20.5H4C3.75829 20.5 3.55629 20.3286 3.50977 20.1006L3.5 20V4C3.5 3.72386 3.72386 3.5 4 3.5H9.5L14 6Z" fill="#F5F5F7"/>
<path d="M10.6555 16.0105L20.6552 15.9891L20.6586 17.4883L10.6583 17.5104L10.6555 16.0105Z" fill="#F5F5F7"/>
<path d="M12.8283 12.9105L13.889 13.9711L11.1213 16.7388L13.889 19.5064L12.8283 20.5671L8.99999 16.7388L12.8283 12.9105Z" fill="#F5F5F7"/>
</svg>
