<svg width="24" height="24" viewBox="0 0 24 24" fill="none" xmlns="http://www.w3.org/2000/svg">
<path d="M18.5 7.5C18.5 6.39543 17.6046 5.5 16.5 5.5C15.3954 5.5 14.5 6.39543 14.5 7.5C14.5 8.60457 15.3954 9.5 16.5 9.5V11C14.567 11 13 9.433 13 7.5C13 5.567 14.567 4 16.5 4C18.433 4 20 5.567 20 7.5C20 9.433 18.433 11 16.5 11V9.5C17.6046 9.5 18.5 8.60457 18.5 7.5Z" fill="#F5F5F7"/>
<path d="M5.5 9.5H9.5V5.5H5.5V9.5ZM11 10.5C11 10.7761 10.7761 11 10.5 11H4.5C4.22386 11 4 10.7761 4 10.5V4.5C4 4.22386 4.22386 4 4.5 4H10.5C10.7761 4 11 4.22386 11 4.5V10.5Z" fill="#F5F5F7"/>
<path d="M14.5 18.5H18.5V14.5H14.5V18.5ZM20 19.5C20 19.7761 19.7761 20 19.5 20H13.5C13.2239 20 13 19.7761 13 19.5V13.5C13 13.2239 13.2239 13 13.5 13H19.5C19.7761 13 20 13.2239 20 13.5V19.5Z" fill="#F5F5F7"/>
<path d="M5.5 18.5H9.5V14.5H5.5V18.5ZM11 19.5C11 19.7761 10.7761 20 10.5 20H4.5C4.22386 20 4 19.7761 4 19.5V13.5C4 13.2239 4.22386 13 4.5 13H10.5C10.7761 13 11 13.2239 11 13.5V19.5Z" fill="#F5F5F7"/>
</svg>
