<svg width="24" height="24" viewBox="0 0 24 24" fill="none" xmlns="http://www.w3.org/2000/svg">
<path d="M10 3.5C10 3.22386 10.2239 3 10.5 3H13.5C13.7761 3 14 3.22386 14 3.5V4C14 4.27614 13.7761 4.5 13.5 4.5H10.5C10.2239 4.5 10 4.27614 10 4V3.5Z" fill="#F5F5F7"/>
<path d="M11.75 7C11.4739 7 11.25 6.77614 11.25 6.5L11.25 4.5C11.25 4.22386 11.4739 4 11.75 4L12.25 4C12.5261 4 12.75 4.22386 12.75 4.5L12.75 6.5C12.75 6.77614 12.5261 7 12.25 7L11.75 7Z" fill="#F5F5F7"/>
<path d="M15.433 7.84808C15.1939 7.71 15.1119 7.40421 15.25 7.16506L16.25 5.43301C16.3881 5.19387 16.6939 5.11193 16.933 5.25L17.366 5.5C17.6052 5.63807 17.6871 5.94387 17.549 6.18301L16.549 7.91506C16.411 8.15421 16.1052 8.23615 15.866 8.09808L15.433 7.84808Z" fill="#F5F5F7"/>
<circle cx="12" cy="13.5" r="6.75" stroke="#F5F5F7" stroke-width="1.5"/>
<rect x="12" y="12" width="2" height="2" transform="rotate(45 12 12)" fill="#F5F5F7"/>
</svg>
