<svg width="24" height="24" viewBox="0 0 24 24" fill="none" xmlns="http://www.w3.org/2000/svg">
<path d="M20.6257 12.6687C20.3398 13.0063 19.8385 13.0671 19.4803 12.8073L19.4067 12.7476L16.9951 10.5553L18.0048 9.44497L19.859 11.1308L21.3082 8.97279L21.9305 9.39138L22.5528 9.80899L20.6837 12.592L20.6257 12.6687Z" fill="#F5F5F7"/>
<path d="M19.25 12C19.25 7.99593 16.0041 4.75 12 4.75C7.99593 4.75 4.75 7.99593 4.75 12C4.75 16.0041 7.99593 19.25 12 19.25C14.6823 19.25 17.0255 17.7936 18.2803 15.625L19.5781 16.376C18.0662 18.989 15.2393 20.75 12 20.75C7.16751 20.75 3.25 16.8325 3.25 12C3.25 7.16751 7.16751 3.25 12 3.25C16.8325 3.25 20.75 7.16751 20.75 12L19.25 12Z" fill="#F5F5F7"/>
</svg>
