<svg width="24" height="24" viewBox="0 0 24 24" fill="none" xmlns="http://www.w3.org/2000/svg">
<path d="M11.9971 2.7C12.2826 2.69927 12.5439 2.86119 12.6709 3.11699L15.2832 8.37969L21.1084 9.2293C21.3902 9.27049 21.6244 9.46736 21.7129 9.73809C21.8012 10.0091 21.7281 10.3072 21.5244 10.5066L17.2871 14.6561L18.2939 20.4207C18.3432 20.7031 18.2273 20.9889 17.9951 21.157C17.7631 21.3251 17.456 21.3464 17.2031 21.2117L11.999 18.4383L6.79688 21.2117C6.54383 21.3465 6.236 21.3254 6.00391 21.157C5.77185 20.9886 5.6564 20.7022 5.70606 20.4197L6.71875 14.6561L2.47559 10.5076C2.27166 10.3082 2.19889 10.0102 2.28711 9.73906C2.37552 9.46778 2.61021 9.26927 2.89258 9.22832L8.74903 8.37969L11.3262 3.11992L11.3789 3.02813C11.5168 2.8253 11.7474 2.70077 11.9971 2.7ZM9.92188 9.39531C9.81288 9.61746 9.60133 9.77183 9.35645 9.80742L4.60938 10.4949L8.05079 13.8602C8.22775 14.0332 8.30846 14.2824 8.26563 14.5262L7.44922 19.1639L11.6465 16.9266C11.867 16.809 12.132 16.809 12.3525 16.9266L16.5518 19.1648L15.7422 14.5252C15.6998 14.2819 15.7806 14.033 15.957 13.8602L19.3936 10.4939L14.6777 9.80742C14.4342 9.77189 14.2237 9.61868 14.1143 9.39824L12.0029 5.14531L9.92188 9.39531Z" fill="#F5F5F7"/>
</svg>
