<svg width="24" height="24" viewBox="0 0 24 24" fill="none" xmlns="http://www.w3.org/2000/svg">
<path d="M19.0503 4.94975C16.3166 2.21608 11.8844 2.21608 9.15076 4.94975C6.59628 7.50423 6.42985 11.541 8.64943 14.2899L4.37779 18.5616L5.43845 19.6222L9.71009 15.3506C12.459 17.5702 16.4958 17.4037 19.0503 14.8492C21.7839 12.1156 21.7839 7.68342 19.0503 4.94975ZM17.9896 6.01041C20.1375 8.15829 20.1375 11.6407 17.9896 13.7886C15.8417 15.9365 12.3593 15.9365 10.2114 13.7886C8.06353 11.6407 8.06353 8.15829 10.2114 6.01041C12.3593 3.86253 15.8417 3.86253 17.9896 6.01041Z" fill="#F5F5F7"/>
</svg>
