<svg width="24" height="24" viewBox="0 0 24 24" fill="none" xmlns="http://www.w3.org/2000/svg">
<path d="M8.85048 7.16077C10.911 4.92891 14.3906 4.78999 16.6225 6.85048C18.8543 8.91096 18.9932 12.3906 16.9328 14.6225C14.8723 16.8543 11.3926 16.9932 9.16077 14.9327L8.14327 16.0349C10.9838 18.6573 15.4124 18.4805 18.0349 15.64C20.6573 12.7994 20.4805 8.37079 17.64 5.74835C14.7994 3.12591 10.3708 3.30272 7.74835 6.14326C5.12591 8.98381 5.30272 13.4124 8.14327 16.0349L9.16077 14.9327C6.92891 12.8723 6.78999 9.39263 8.85048 7.16077Z" fill="#F5F5F7"/>
<path d="M8.24264 15L9.3033 16.0607L5.06066 20.3033L4 19.2426L8.24264 15Z" fill="#F5F5F7"/>
</svg>
