<svg width="24" height="24" viewBox="0 0 24 24" fill="none" xmlns="http://www.w3.org/2000/svg">
<path d="M17.6401 5.74798C14.7995 3.12567 10.3706 3.30315 7.74815 6.14365C5.29769 8.79823 5.29311 12.8382 7.62109 15.4962L3.52208 19.9336L4.07382 20.4439L4.62418 20.9528L8.7225 16.5148C11.5576 18.6222 15.584 18.2938 18.0343 15.6399C20.6568 12.7993 20.4806 8.37042 17.6401 5.74798ZM16.6222 6.85007C18.8541 8.91056 18.9934 12.3909 16.9329 14.6227C14.8725 16.8545 11.3928 16.9931 9.16098 14.9328C6.92913 12.8723 6.79044 9.39267 8.85093 7.16081C10.9113 4.92926 14.3904 4.78997 16.6222 6.85007Z" fill="#F5F5F7"/>
</svg>
