<svg width="24" height="24" viewBox="0 0 24 24" fill="none" xmlns="http://www.w3.org/2000/svg">
<path d="M16.208 3.25C16.6031 3.25009 16.9709 3.43681 17.2051 3.74707L17.2969 3.88672L21.5156 11.3867C21.7297 11.7672 21.7297 12.2328 21.5156 12.6133L17.2969 20.1133C17.0755 20.5065 16.6593 20.7499 16.208 20.75H7.79297C7.34152 20.75 6.92458 20.5067 6.70312 20.1133L2.48437 12.6133C2.27033 12.2328 2.27033 11.7672 2.48437 11.3867L6.70312 3.88672L6.79492 3.74707C7.02913 3.43667 7.39775 3.25 7.79297 3.25H16.208ZM3.86035 12L7.93945 19.25H16.0615L20.1387 12L16.0615 4.75H7.93945L3.86035 12Z" fill="#F5F5F7"/>
<path d="M13.75 12C13.75 11.0335 12.9665 10.25 12 10.25C11.0335 10.25 10.25 11.0335 10.25 12C10.25 12.9665 11.0335 13.75 12 13.75C12.9665 13.75 13.75 12.9665 13.75 12ZM15.25 12C15.25 13.7949 13.7949 15.25 12 15.25C10.2051 15.25 8.75 13.7949 8.75 12C8.75 10.2051 10.2051 8.75 12 8.75C13.7949 8.75 15.25 10.2051 15.25 12Z" fill="#F5F5F7"/>
</svg>
