<svg width="24" height="24" viewBox="0 0 24 24" fill="none" xmlns="http://www.w3.org/2000/svg">
<path d="M15 19.75V21.25H9V19.75H15Z" fill="#F5F5F7"/>
<path d="M12.75 11.5V20.5H11.25V11.5H12.75Z" fill="#F5F5F7"/>
<path d="M12 3C16.9706 3 21 7.02944 21 12C21 14.6667 19.8388 17.061 17.9961 18.709L17.1289 17.4697C18.5875 16.1014 19.5 14.1578 19.5 12C19.5 7.85786 16.1421 4.5 12 4.5C7.85786 4.5 4.5 7.85786 4.5 12C4.5 14.1575 5.41178 16.1015 6.87012 17.4697L6.00293 18.709C4.16055 17.061 3 14.6664 3 12C3 7.02944 7.02944 3 12 3ZM12 7C14.7614 7 17 9.23858 17 12C17 13.3089 16.496 14.4994 15.6729 15.3906L14.7832 14.1201C15.2322 13.5316 15.5 12.7974 15.5 12C15.5 10.067 13.933 8.5 12 8.5C10.067 8.5 8.5 10.067 8.5 12C8.5 12.7972 8.76705 13.5317 9.21582 14.1201L8.32617 15.3906C7.50327 14.4994 7 13.3087 7 12C7 9.23858 9.23858 7 12 7Z" fill="#F5F5F7"/>
</svg>
