<svg width="24" height="24" viewBox="0 0 24 24" fill="none" xmlns="http://www.w3.org/2000/svg">
<path d="M4 20.5C3.72386 20.5 3.5 20.2761 3.5 20V4C3.50014 3.72398 3.72394 3.5 4 3.5H20C20.2761 3.5 20.4999 3.72398 20.5 4V20C20.5 20.2761 20.2761 20.5 20 20.5H4ZM5 19H19V5H5V19Z" fill="#F5F5F7"/>
<path d="M19.5 8.75V10.25H4V8.75H19.5Z" fill="#F5F5F7"/>
<path d="M10.25 19.5L8.75 19.5L8.75 4L10.25 4L10.25 19.5Z" fill="#F5F5F7"/>
<path d="M15.25 19.5L13.75 19.5L13.75 4L15.25 4L15.25 19.5Z" fill="#F5F5F7"/>
<path d="M19.5 13.75V15.25H4V13.75H19.5Z" fill="#F5F5F7"/>
</svg>
