<svg width="24" height="24" viewBox="0 0 24 24" fill="none" xmlns="http://www.w3.org/2000/svg">
<mask id="path-1-inside-1_190_308" fill="white">
<path d="M20 3.5C20.2761 3.5 20.4999 3.72398 20.5 4V20C20.5 20.2761 20.2761 20.5 20 20.5H4C3.72386 20.5 3.5 20.2761 3.5 20V4C3.50014 3.72398 3.72394 3.5 4 3.5H20Z"/>
</mask>
<path d="M20 3.5L20 2H20V3.5ZM20.5 4H22V3.99924L20.5 4ZM20.5 20H22V20H20.5ZM20 20.5V22V22V20.5ZM4 20.5L4 22H4V20.5ZM3.5 20H5V20H3.5ZM3.5 4L2 3.99924V4H3.5ZM4 3.5L4 5H4V3.5ZM20 3.5L20 5C19.4469 5 19.0003 4.55181 19 4.00076L20.5 4L22 3.99924C21.9994 2.89614 21.1052 2 20 2L20 3.5ZM20.5 4H19V20H20.5H22V4H20.5ZM20.5 20H19C19 19.4477 19.4477 19 20 19V20.5V22C21.1046 22 22 21.1046 22 20H20.5ZM20 20.5V19H4V20.5V22H20V20.5ZM4 20.5L4 19C4.55228 19 5 19.4477 5 20H3.5H2C2 21.1046 2.89543 22 4 22L4 20.5ZM3.5 20H5V4H3.5H2V20H3.5ZM3.5 4L5 4.00076C4.99972 4.55181 4.55312 5 4 5L4 3.5L4 2C2.89476 2 2.00056 2.89614 2 3.99924L3.5 4ZM4 3.5V5H20V3.5V2H4V3.5Z" fill="#F5F5F7" mask="url(#path-1-inside-1_190_308)"/>
<path d="M19.5 8.75V10.25H4V8.75H19.5Z" fill="#F5F5F7"/>
<path d="M10.25 19.5L8.75 19.5L8.75 4L10.25 4L10.25 19.5Z" fill="#F5F5F7"/>
<path d="M15.25 19.5L13.75 19.5L13.75 4L15.25 4L15.25 19.5Z" fill="#F5F5F7"/>
<path d="M19.5 13.75V15.25H4V13.75H19.5Z" fill="#F5F5F7"/>
</svg>
