<svg width="24" height="24" viewBox="0 0 24 24" fill="none" xmlns="http://www.w3.org/2000/svg">
<path d="M19.0417 13.5533C16.7897 14.9045 14.9045 16.7897 13.5533 19.0417L11.8995 21.799L10.2457 19.0417C8.89447 16.7897 7.00929 14.9045 4.7573 13.5533L2 11.8995L4.7573 10.2457C6.86851 8.97894 8.65668 7.24263 9.98533 5.17508L10.2457 4.7573L11.8995 2L13.5533 4.7573C14.82 6.86851 16.5564 8.65668 18.6239 9.98533L19.0417 10.2457L21.799 11.8995L19.0417 13.5533ZM18.2697 11.5314C15.8067 10.0536 13.7454 7.99224 12.2675 5.52932L11.8995 4.91543L11.5314 5.52932C10.0536 7.99224 7.99224 10.0536 5.52932 11.5314L4.91612 11.8988L5.52932 12.2675C7.99224 13.7454 10.0536 15.8067 11.5314 18.2697L11.8995 18.8822L12.2675 18.2697C13.7454 15.8067 15.8067 13.7454 18.2697 12.2675L18.8829 11.8988L18.2697 11.5314Z" fill="#F5F5F7"/>
<rect x="11.9678" y="10.2" width="2.5" height="2.5" transform="rotate(45 11.9678 10.2)" fill="#F5F5F7"/>
</svg>
