<svg width="24" height="24" viewBox="0 0 24 24" fill="none" xmlns="http://www.w3.org/2000/svg">
<path d="M20.0303 5.03027L14.0303 11.0303L12.9697 9.96973L18.9697 3.96973L20.0303 5.03027Z" fill="#F5F5F7"/>
<path d="M20 10H18.5V5.5H14V4H20V10Z" fill="#F5F5F7"/>
<path d="M5.5 9.5H9.5V5.5H5.5V9.5ZM11 10.5C11 10.7761 10.7761 11 10.5 11H4.5C4.22386 11 4 10.7761 4 10.5V4.5C4 4.22386 4.22386 4 4.5 4H10.5C10.7761 4 11 4.22386 11 4.5V10.5Z" fill="#F5F5F7"/>
<path d="M14.5 18.5H18.5V14.5H14.5V18.5ZM20 19.5C20 19.7761 19.7761 20 19.5 20H13.5C13.2239 20 13 19.7761 13 19.5V13.5C13 13.2239 13.2239 13 13.5 13H19.5C19.7761 13 20 13.2239 20 13.5V19.5Z" fill="#F5F5F7"/>
<path d="M5.5 18.5H9.5V14.5H5.5V18.5ZM11 19.5C11 19.7761 10.7761 20 10.5 20H4.5C4.22386 20 4 19.7761 4 19.5V13.5C4 13.2239 4.22386 13 4.5 13H10.5C10.7761 13 11 13.2239 11 13.5V19.5Z" fill="#F5F5F7"/>
</svg>
