<svg width="24" height="24" viewBox="0 0 24 24" fill="none" xmlns="http://www.w3.org/2000/svg">
<path d="M20.5303 4.53027L14.5303 10.5303L13.4697 9.46973L19.4697 3.46973L20.5303 4.53027Z" fill="#F5F5F7"/>
<path d="M9.55566 5H5V19H19V14.4443H9.55566V5ZM11.0557 12.9443H20C20.2761 12.9443 20.4999 13.1682 20.5 13.4443V20C20.5 20.2761 20.2761 20.5 20 20.5H4C3.72386 20.5 3.5 20.2761 3.5 20V4C3.5 3.72386 3.72386 3.5 4 3.5H10.5557C10.8318 3.50006 11.0557 3.72389 11.0557 4V12.9443Z" fill="#F5F5F7"/>
<path d="M20.5 9.5H19V5H14.5V3.5H20.5V9.5Z" fill="#F5F5F7"/>
</svg>
