<svg width="24" height="24" viewBox="0 0 24 24" fill="none" xmlns="http://www.w3.org/2000/svg">
<path d="M20.5303 4.53027L14.5303 10.5303L13.4697 9.46973L19.4697 3.46973L20.5303 4.53027Z" fill="#F5F5F7"/>
<mask id="path-2-inside-1_190_136" fill="white">
<path d="M10.5557 3.5C10.8318 3.50006 11.0557 3.72389 11.0557 4V12.9443H20C20.2761 12.9443 20.4999 13.1682 20.5 13.4443V20C20.5 20.2761 20.2761 20.5 20 20.5H4C3.72386 20.5 3.5 20.2761 3.5 20V4C3.5 3.72386 3.72386 3.5 4 3.5H10.5557Z"/>
</mask>
<path d="M10.5557 3.5L10.556 2H10.5557V3.5ZM11.0557 4H12.5557H11.0557ZM11.0557 12.9443H9.55566V14.4443H11.0557V12.9443ZM20 12.9443L20 11.4443H20V12.9443ZM20.5 13.4443H22V13.444L20.5 13.4443ZM20.5 20H22V20H20.5ZM20 20.5V22V22V20.5ZM4 20.5L4 22H4V20.5ZM3.5 20H2H3.5ZM3.5 4L2 4V4H3.5ZM4 3.5V2H4L4 3.5ZM10.5557 3.5L10.5553 5C10.0036 4.99988 9.55566 4.55264 9.55566 4H11.0557H12.5557C12.5557 2.89515 11.6599 2.00023 10.556 2L10.5557 3.5ZM11.0557 4H9.55566V12.9443H11.0557H12.5557V4H11.0557ZM11.0557 12.9443V14.4443H20V12.9443V11.4443H11.0557V12.9443ZM20 12.9443L20 14.4443C19.4474 14.4443 19.0001 13.9964 19 13.4447L20.5 13.4443L22 13.444C21.9998 12.3401 21.1048 11.4443 20 11.4443L20 12.9443ZM20.5 13.4443H19V20H20.5H22V13.4443H20.5ZM20.5 20H19C19 19.4477 19.4477 19 20 19V20.5V22C21.1046 22 22 21.1046 22 20H20.5ZM20 20.5V19H4V20.5V22H20V20.5ZM4 20.5L4 19C4.55228 19 5 19.4477 5 20H3.5H2C2 21.1046 2.89543 22 4 22L4 20.5ZM3.5 20H5V4H3.5H2V20H3.5ZM3.5 4L5 4C5 4.55228 4.55229 5 4 5L4 3.5L4 2C2.89543 2 2 2.89543 2 4L3.5 4ZM4 3.5V5H10.5557V3.5V2H4V3.5Z" fill="#F5F5F7" mask="url(#path-2-inside-1_190_136)"/>
<path d="M20.5 9.5H19V5H14.5V3.5H20.5V9.5Z" fill="#F5F5F7"/>
</svg>
