<svg width="24" height="24" viewBox="0 0 24 24" fill="none" xmlns="http://www.w3.org/2000/svg">
<path d="M5.5 4.5H18.5V16.2637L15.4619 19.5H5.5V4.5ZM20 3.5C20 3.22386 19.7761 3 19.5 3H4.5L4.39941 3.00977C4.17145 3.05629 4 3.25829 4 3.5V20.5C4 20.7761 4.22386 21 4.5 21H16.1113L19.8643 17.001C19.9512 16.9083 20 16.7863 20 16.6592V3.5Z" fill="#F5F5F7"/>
<path d="M19.75 14.75L19.75 16.25L15.75 16.25L15.75 20.25L14.25 20.25L14.25 15.5C14.25 15.0858 14.5858 14.75 15 14.75L19.75 14.75Z" fill="#F5F5F7"/>
<path d="M16 8.5L16 10L8 10L8 8.5L16 8.5Z" fill="#F5F5F7"/>
</svg>
