<svg width="24" height="24" viewBox="0 0 24 24" fill="none" xmlns="http://www.w3.org/2000/svg">
<path d="M4.75 18.75H19.25V8.25H4.75V18.75ZM20.75 19C20.75 19.6904 20.1904 20.25 19.5 20.25H4.5C3.80964 20.25 3.25 19.6904 3.25 19V8C3.25 7.30964 3.80964 6.75 4.5 6.75H19.5C20.1904 6.75 20.75 7.30964 20.75 8V19Z" fill="#F5F5F7"/>
<circle cx="12" cy="13.5" r="3.25" stroke="#F5F5F7" stroke-width="1.5"/>
<path d="M8.5 4C8.5 3.72386 8.72386 3.5 9 3.5H15C15.2761 3.5 15.5 3.72386 15.5 4V4.5C15.5 4.77614 15.2761 5 15 5H9C8.72386 5 8.5 4.77614 8.5 4.5V4Z" fill="#F5F5F7"/>
</svg>
