<svg width="24" height="24" viewBox="0 0 24 24" fill="none" xmlns="http://www.w3.org/2000/svg">
<path d="M17.5 19.5H6.5V7.73633L9.53809 4.5H17.5V19.5ZM5 20.5C5 20.7761 5.22386 21 5.5 21H18.5L18.6006 20.9902C18.8286 20.9437 19 20.7417 19 20.5V3.5C19 3.22386 18.7761 3 18.5 3H8.88867L5.13574 6.99902C5.04879 7.09171 5 7.21373 5 7.34082V20.5Z" fill="#F5F5F7"/>
<path d="M15 10.25L15 11.75L9 11.75L9 10.25L15 10.25Z" fill="#F5F5F7"/>
<path d="M15 14.25L15 15.75L9 15.75L9 14.25L15 14.25Z" fill="#F5F5F7"/>
</svg>
