<svg width="24" height="24" viewBox="0 0 24 24" fill="none" xmlns="http://www.w3.org/2000/svg">
<path d="M6.5 19.5H17.5V7.73633L14.4619 4.5H6.5V19.5ZM19 20.5C19 20.7761 18.7761 21 18.5 21H5.5L5.39941 20.9902C5.17145 20.9437 5 20.7417 5 20.5V3.5C5 3.22386 5.22386 3 5.5 3H15.1113L18.8643 6.99902C18.9512 7.09171 19 7.21373 19 7.34082V20.5Z" fill="#F5F5F7"/>
<path d="M15 8.5L15 10L9 10L9 8.5L15 8.5Z" fill="#F5F5F7"/>
<path d="M12.75 15.5L11.25 15.5L11.25 9.5L12.75 9.5L12.75 15.5Z" fill="#F5F5F7"/>
</svg>
