<svg width="24" height="24" viewBox="0 0 24 24" fill="none" xmlns="http://www.w3.org/2000/svg">
<path d="M15 8.5L15 10L9 10L9 8.5L15 8.5Z" fill="#F5F5F7"/>
<path d="M12.75 15.5L11.25 15.5L11.25 9.5L12.75 9.5L12.75 15.5Z" fill="#F5F5F7"/>
<path d="M19.8643 6.99902C19.9512 7.09171 20 7.21373 20 7.34082V12H18.5V7.73633L15.4619 4.5H5.5V19.5H10V21H4.5L4.39941 20.9902C4.17145 20.9437 4 20.7417 4 20.5V3.5C4 3.22386 4.22386 3 4.5 3H16.1113L19.8643 6.99902Z" fill="#F5F5F7"/>
<path d="M12.0243 19.943L11.369 21.1826L12.869 21.1826L21.7138 15.4221L20.869 14.1825L12.0243 19.943Z" fill="#F5F5F7"/>
<path d="M17.369 19.6826L20 19.6826V21.1826L17.369 21.1826V19.6826Z" fill="#F5F5F7"/>
</svg>
