<svg width="24" height="24" viewBox="0 0 24 24" fill="none" xmlns="http://www.w3.org/2000/svg">
<path d="M19.25 7.93848L12 3.86035L4.75 7.93848V16.0605L12 20.1387L19.25 16.0605V7.93848ZM20.75 16.5C20.75 16.7708 20.604 17.0204 20.3682 17.1533L12.3682 21.6533C12.1399 21.7817 11.8601 21.7817 11.6318 21.6533L3.63184 17.1533C3.39598 17.0204 3.25 16.7708 3.25 16.5V7.5C3.25 7.22924 3.39598 6.97959 3.63184 6.84668L11.6318 2.34668C11.8601 2.21826 12.1399 2.21826 12.3682 2.34668L20.3682 6.84668C20.604 6.97959 20.75 7.22924 20.75 7.5V16.5Z" fill="#F5F5F7"/>
<path d="M12.75 3L12.75 12L11.25 12L11.25 3L12.75 3Z" fill="#F5F5F7"/>
<path d="M12.3857 12.6436L4.88574 17.1436L4.11426 15.8564L11.6143 11.3564L12.3857 12.6436Z" fill="#F5F5F7"/>
<path d="M11.6143 12.6436L19.1143 17.1436L19.8857 15.8564L12.3857 11.3564L11.6143 12.6436Z" fill="#F5F5F7"/>
</svg>
