<svg width="24" height="24" viewBox="0 0 24 24" fill="none" xmlns="http://www.w3.org/2000/svg">
<path d="M16 9.25C16.2975 9.25 16.5668 9.42589 16.6865 9.69824L19.5439 16.1982L20.6816 18.6885L20.9941 19.3701L19.6299 19.9941L19.3184 19.3115L18.375 17.25H13.625L12.6816 19.3115L12.3701 19.9941L11.0059 19.3701L11.3184 18.6885L12.4561 16.1982L15.3135 9.69824L15.3652 9.60059C15.5011 9.38458 15.7398 9.25 16 9.25ZM14.291 15.75H17.709L16 11.8633L14.291 15.75Z" fill="#F5F5F7"/>
<path d="M10.2119 4.2627L10.4482 4.97461L9.02539 5.44824L8.28809 3.2373L9.71191 2.7627L10.2119 4.2627Z" fill="#F5F5F7"/>
<path d="M15.75 4.75V6.25H4V4.75H15.75Z" fill="#F5F5F7"/>
<path d="M7.75098 8.00684C7.75186 8.02352 7.75309 8.05441 7.75781 8.09766C7.76736 8.18496 7.78789 8.32414 7.83105 8.50684C7.91748 8.87249 8.0967 9.41529 8.46582 10.0684C9.2007 11.3685 10.715 13.1488 13.8555 14.8398L13.1445 16.1602C9.78504 14.3512 8.04932 12.3815 7.15918 10.8066C6.71596 10.0225 6.48879 9.3462 6.37207 8.85254C6.31379 8.60599 6.28343 8.40484 6.26758 8.25977C6.25968 8.18739 6.25523 8.12862 6.25293 8.08496C6.25179 8.06334 6.25037 8.0454 6.25 8.03125V8.00098L7.75 7.99902V7.99805L7.75098 8.00684Z" fill="#F5F5F7"/>
<path d="M13.9082 5.45215L13.7275 6.18066V6.18262C13.7273 6.18343 13.7269 6.18437 13.7266 6.18555C13.7259 6.18813 13.7247 6.19198 13.7236 6.19629C13.7215 6.20479 13.7187 6.21661 13.7148 6.23145C13.7068 6.26197 13.6952 6.30599 13.6797 6.36133C13.6487 6.47206 13.6023 6.63032 13.54 6.82617C13.4156 7.2178 13.2263 7.7636 12.9639 8.38281C12.4437 9.61007 11.6162 11.1793 10.4043 12.416C9.22467 13.6198 7.69934 14.684 6.49316 15.4375C5.88558 15.8171 5.34873 16.1239 4.96387 16.3359C4.77148 16.4419 4.61651 16.5245 4.50879 16.5811C4.45488 16.6093 4.41285 16.6316 4.38379 16.6465L4.34082 16.668C4.33974 16.6685 4.33855 16.6686 4.33789 16.6689V16.6699H4.33691L3.66309 15.3301L3.66406 15.3291C3.66536 15.3284 3.6679 15.3277 3.6709 15.3262C3.67692 15.3231 3.6866 15.318 3.69922 15.3115C3.72439 15.2986 3.76216 15.2788 3.81152 15.2529C3.91102 15.2007 4.05753 15.1231 4.24023 15.0225C4.60619 14.8208 5.11836 14.5283 5.69824 14.166C6.867 13.4359 8.27596 12.4449 9.33301 11.3662C10.3576 10.3205 11.0957 8.94441 11.582 7.79688C11.8229 7.22859 11.9971 6.72841 12.1104 6.37207C12.1668 6.19444 12.2087 6.05341 12.2354 5.95801C12.2486 5.91056 12.2575 5.87402 12.2637 5.85059C12.2667 5.83913 12.2692 5.83041 12.2705 5.8252L12.2725 5.81934L12.4521 5.0918L13.9082 5.45215Z" fill="#F5F5F7"/>
</svg>
