<svg width="24" height="24" viewBox="0 0 24 24" fill="none" xmlns="http://www.w3.org/2000/svg">
<path d="M20.0002 7.5C20.2763 7.50014 20.5002 7.72394 20.5002 8V19.5L20.4905 19.6006C20.4506 19.796 20.2962 19.9503 20.1008 19.9902L20.0002 20H4.00024C3.7241 20 3.50024 19.7761 3.50024 19.5V8C3.50024 7.72386 3.7241 7.5 4.00024 7.5H20.0002ZM5.00024 18.5H19.0002V9H5.00024V18.5Z" fill="#F5F5F7"/>
<path d="M12.7425 11.2876L12.7425 16L11.2426 16L11.2427 11.2876L12.7425 11.2876Z" fill="#F5F5F7"/>
<path d="M15.2354 13.8233L14.1747 14.884L11.9926 12.7019L9.81054 14.884L8.74988 13.8233L11.9926 10.5806L15.2354 13.8233Z" fill="#F5F5F7"/>
<rect x="6" y="4" width="12" height="1.5" rx="0.5" fill="#F5F5F7"/>
</svg>
