<svg width="24" height="24" viewBox="0 0 24 24" fill="none" xmlns="http://www.w3.org/2000/svg">
<path d="M5.5 18.5H14.5V13.5H5.5V18.5ZM16 19.5C16 19.7417 15.8286 19.9437 15.6006 19.9902L15.5 20H4.5C4.22386 20 4 19.7761 4 19.5V12.5C4 12.2239 4.22386 12 4.5 12H15.5L15.6006 12.0098C15.8286 12.0563 16 12.2583 16 12.5V19.5Z" fill="#F5F5F7"/>
<path d="M15.1738 16.6846C14.7584 16.2865 14.7887 15.5964 15.2637 15.2402L18.8896 12.5195C19.45 12.0993 20.25 12.4998 20.25 13.2002L20.25 18.7998C20.25 19.5002 19.45 19.8998 18.8896 19.4795L15.2637 16.7598L15.1738 16.6846ZM18.75 17.5L18.75 14.5L16.75 16L18.75 17.5Z" fill="#F5F5F7"/>
<path d="M8.42311 7.67605C8.2087 6.87586 7.38619 6.40098 6.58599 6.61539C5.78579 6.82981 5.31092 7.65231 5.52533 8.45251C5.73975 9.25271 6.56225 9.72758 7.36245 9.51317L7.75068 10.9621C6.15028 11.3909 4.50527 10.4411 4.07644 8.84074C3.64762 7.24034 4.59737 5.59533 6.19777 5.16651C7.79816 4.73768 9.44317 5.68743 9.872 7.28783C10.3008 8.88822 9.35108 10.5332 7.75068 10.9621L7.36245 9.51317C8.16265 9.29876 8.63752 8.47625 8.42311 7.67605Z" fill="#F5F5F7"/>
<path d="M15.54 6.0799C15.1421 4.59516 13.6161 3.71403 12.1313 4.11187C10.6466 4.50977 9.76553 6.03586 10.1633 7.52059C10.5611 9.00536 12.0872 9.88638 13.572 9.48861L13.9602 10.9375C11.6753 11.5497 9.32667 10.1938 8.71441 7.90882C8.10223 5.62388 9.45819 3.27529 11.7431 2.66299C14.0281 2.05073 16.3766 3.40673 16.9889 5.69167C17.6012 7.97668 16.2452 10.3252 13.9602 10.9375L13.572 9.48861C15.0568 9.09076 15.9379 7.56471 15.54 6.0799Z" fill="#F5F5F7"/>
</svg>
