<svg width="24" height="24" viewBox="0 0 24 24" fill="none" xmlns="http://www.w3.org/2000/svg">
<g clip-path="url(#clip0_507_2272)">
<path d="M4.5 18H19.5V9.28418L15.4668 6H4.5V18ZM21 19L20.9902 19.1006C20.9437 19.3286 20.7417 19.5 20.5 19.5H3.5C3.22386 19.5 3 19.2761 3 19V5C3 4.72386 3.22386 4.5 3.5 4.5H16L20.8154 8.4209C20.932 8.51585 21 8.65919 21 8.80957V19Z" fill="#F5F5F7"/>
<path d="M8.75 11.25H10.25V9H11.75V15H10.25V12.75H8.75V15H7.25V9H8.75V11.25Z" fill="#F5F5F7"/>
<path d="M13 9C15.2091 9 17 10 17 12C17 14 15.2091 15 13 15V9ZM14.25 13.5C15.0784 13.5 15.75 12.8284 15.75 12C15.75 11.1716 15.0784 10.5 14.25 10.5V13.5Z" fill="#F5F5F7"/>
</g>
<defs>
<clipPath id="clip0_507_2272">
<rect width="24" height="24" fill="white"/>
</clipPath>
</defs>
</svg>
