<svg width="24" height="24" viewBox="0 0 24 24" fill="none" xmlns="http://www.w3.org/2000/svg">
<path d="M9.22272 7.20717C9.03805 6.09569 7.98675 5.34437 6.87521 5.52887C5.76384 5.71353 5.01245 6.764 5.19675 7.87542C5.38125 8.98697 6.43192 9.73916 7.54346 9.55484C8.65512 9.37032 9.40724 8.31883 9.22272 7.20717ZM10.7025 6.96155C11.0226 8.89045 9.71798 10.7144 7.78908 11.0346C5.8603 11.3546 4.03715 10.0498 3.71699 8.12104C3.39705 6.19237 4.70098 4.36943 6.62959 4.04912C8.55838 3.72897 10.3821 5.03283 10.7025 6.96155Z" fill="#F5F5F7"/>
<path d="M14.8035 7.20717C14.6188 6.09569 13.5675 5.34437 12.456 5.52887C11.3446 5.71353 10.5932 6.764 10.7775 7.87542C10.962 8.98697 12.0127 9.73916 13.1242 9.55484C14.2359 9.37032 14.988 8.31883 14.8035 7.20717ZM16.2832 6.96155C16.6034 8.89045 15.2987 10.7144 13.3698 11.0346C11.441 11.3546 9.6179 10.0498 9.29774 8.12104C8.9778 6.19237 10.2817 4.36943 12.2103 4.04912C14.1391 3.72897 15.9629 5.03283 16.2832 6.96155Z" fill="#F5F5F7"/>
<path d="M5.5 18.5H14.5V13.5H5.5V18.5ZM16 19.5C16 19.7417 15.8286 19.9437 15.6006 19.9902L15.5 20H4.5C4.22386 20 4 19.7761 4 19.5V12.5C4 12.2239 4.22386 12 4.5 12H15.5L15.6006 12.0098C15.8286 12.0563 16 12.2583 16 12.5V19.5Z" fill="#F5F5F7"/>
<path d="M15.1739 16.6846C14.7584 16.2865 14.7888 15.5964 15.2637 15.2402L18.8897 12.5195C19.45 12.0993 20.25 12.4998 20.25 13.2002L20.25 18.7998C20.25 19.5002 19.45 19.8998 18.8897 19.4795L15.2637 16.7598L15.1739 16.6846ZM18.75 17.5L18.75 14.5L16.75 16L18.75 17.5Z" fill="#F5F5F7"/>
</svg>
