<svg width="24" height="24" viewBox="0 0 24 24" fill="none" xmlns="http://www.w3.org/2000/svg">
<path d="M9.2227 7.20717C9.03803 6.09569 7.98674 5.34437 6.87519 5.52887C5.76382 5.71352 5.01244 6.76399 5.19673 7.87542C5.38123 8.98697 6.43191 9.73915 7.54344 9.55484C8.6551 9.37032 9.40722 8.31882 9.2227 7.20717ZM10.7025 6.96155C11.0226 8.89045 9.71797 10.7144 7.78906 11.0346C5.86028 11.3546 4.03713 10.0498 3.71698 8.12104C3.39703 6.19237 4.70096 4.36942 6.62957 4.04911C8.55836 3.72896 10.3821 5.03283 10.7025 6.96155Z" fill="#F5F5F7"/>
<path d="M14.8035 7.20717C14.6188 6.09569 13.5675 5.34437 12.4559 5.52887C11.3446 5.71352 10.5932 6.76399 10.7775 7.87542C10.962 8.98697 12.0127 9.73915 13.1242 9.55484C14.2359 9.37032 14.988 8.31882 14.8035 7.20717ZM16.2832 6.96155C16.6034 8.89045 15.2987 10.7144 13.3698 11.0346C11.441 11.3546 9.61788 10.0498 9.29773 8.12104C8.97778 6.19237 10.2817 4.36942 12.2103 4.04911C14.1391 3.72896 15.9629 5.03283 16.2832 6.96155Z" fill="#F5F5F7"/>
<path d="M5.5 18.5H14.5V13.5H5.5V18.5ZM16 19.5C16 19.7417 15.8286 19.9437 15.6006 19.9902L15.5 20H4.5C4.22386 20 4 19.7761 4 19.5V12.5C4 12.2239 4.22386 12 4.5 12H15.5L15.6006 12.0098C15.8286 12.0563 16 12.2583 16 12.5V19.5Z" fill="#F5F5F7"/>
<path d="M15.1738 16.6846C14.7584 16.2865 14.7887 15.5964 15.2637 15.2402L18.8896 12.5195C19.45 12.0993 20.25 12.4998 20.25 13.2002L20.25 18.7998C20.25 19.5002 19.45 19.8998 18.8896 19.4795L15.2637 16.7598L15.1738 16.6846ZM18.75 17.5L18.75 14.5L16.75 16L18.75 17.5Z" fill="#F5F5F7"/>
</svg>
