<svg width="24" height="24" viewBox="0 0 24 24" fill="none" xmlns="http://www.w3.org/2000/svg">
<path d="M14.75 6.5C14.75 4.98122 13.5188 3.75 12 3.75C10.4812 3.75 9.25 4.98122 9.25 6.5V11C9.25 12.5188 10.4812 13.75 12 13.75C13.5188 13.75 14.75 12.5188 14.75 11V6.5ZM16.25 11C16.25 13.3472 14.3472 15.25 12 15.25C9.65279 15.25 7.75 13.3472 7.75 11V6.5C7.75 4.15279 9.65279 2.25 12 2.25C14.3472 2.25 16.25 4.15279 16.25 6.5V11Z" fill="#F4F4F5"/>
<path d="M5.25 10.5C5.25 14.2279 8.27206 17.25 12 17.25C15.7279 17.25 18.75 14.2279 18.75 10.5H20.25C20.25 15.0564 16.5564 18.75 12 18.75C7.44364 18.75 3.75 15.0564 3.75 10.5H5.25Z" fill="#F4F4F5"/>
<path d="M12.75 18V21H11.25V18H12.75Z" fill="#F4F4F5"/>
</svg>
