<svg width="24" height="24" viewBox="0 0 24 24" fill="none" xmlns="http://www.w3.org/2000/svg">
<path d="M4.39941 15.9905C4.17145 15.944 4 15.742 4 15.5003V8.50027C4 8.22413 4.22386 8.00027 4.5 8.00027H7.5332L7.60352 7.99539C7.65003 7.98875 7.69544 7.97563 7.73828 7.95633L7.7998 7.92312L13.2324 4.48562C13.5653 4.27499 14 4.51452 14 4.90848V19.0921C14 19.4615 13.618 19.6951 13.2959 19.5491L13.2324 19.5149L7.7998 16.0774C7.73998 16.0397 7.67304 16.0151 7.60352 16.0052L7.5332 16.0003V14.5003C7.8642 14.5003 8.18921 14.5826 8.47949 14.7386L8.60254 14.8098L12.5 17.2757V6.72391L8.60254 9.1907C8.28271 9.39305 7.91166 9.50021 7.5332 9.50027H5.5V14.5003H7.5332V16.0003H4.5L4.39941 15.9905Z" fill="#F5F5F7"/>
<path d="M16 7C18.2823 7.47278 20 9.53257 20 12.001C19.9998 14.4691 18.2821 16.5273 16 17V15.4229C17.4454 14.9837 18.4998 13.6185 18.5 12.001C18.5 10.383 17.4458 9.01538 16 8.57617V7Z" fill="#F5F5F7"/>
</svg>
