<svg width="24" height="24" viewBox="0 0 24 24" fill="none" xmlns="http://www.w3.org/2000/svg">
<path d="M4.39941 15.9905C4.17145 15.944 4 15.742 4 15.5003V8.50027C4 8.22413 4.22386 8.00027 4.5 8.00027H7.5332L7.60352 7.99539C7.65003 7.98875 7.69544 7.97563 7.73828 7.95633L7.7998 7.92312L13.2324 4.48562C13.5653 4.27499 14 4.51452 14 4.90848V19.0921C14 19.4615 13.618 19.6951 13.2959 19.5491L13.2324 19.5149L7.7998 16.0774C7.73998 16.0397 7.67304 16.0151 7.60352 16.0052L7.5332 16.0003V14.5003C7.8642 14.5003 8.18921 14.5826 8.47949 14.7386L8.60254 14.8098L12.5 17.2757V6.72391L8.60254 9.1907C8.28271 9.39305 7.91166 9.50021 7.5332 9.50027H5.5V14.5003H7.5332V16.0003H4.5L4.39941 15.9905Z" fill="#F5F5F7"/>
<path d="M19.291 9.64717C19.485 9.45129 19.7992 9.45125 19.9932 9.64717L20.3623 10.0202C20.5564 10.2166 20.5564 10.5357 20.3623 10.7321L19.0752 12.0329L20.3008 13.2731C20.4949 13.4696 20.4949 13.7886 20.3008 13.9851L19.9326 14.3581C19.7386 14.5544 19.4236 14.5543 19.2295 14.3581L18.0039 13.1179L16.7783 14.3581C16.5843 14.554 16.2702 14.5541 16.0762 14.3581L15.707 13.9851C15.5129 13.7886 15.5129 13.4696 15.707 13.2731L16.9316 12.0329L15.6455 10.7321C15.4515 10.5357 15.4515 10.2166 15.6455 10.0202L16.0146 9.64717C16.2087 9.45098 16.5237 9.4509 16.7178 9.64717L18.0039 10.9489L19.291 9.64717Z" fill="#F5F5F7"/>
</svg>
