<svg width="24" height="24" viewBox="0 0 24 24" fill="none" xmlns="http://www.w3.org/2000/svg">
<path d="M4.39941 15.9905C4.17145 15.944 4 15.742 4 15.5003V8.50028C4 8.22413 4.22386 8.00028 4.5 8.00028H7.5332L7.60352 7.99539C7.65003 7.98875 7.69544 7.97563 7.73828 7.95633L7.7998 7.92313L13.2324 4.48563C13.5653 4.275 14 4.51452 14 4.90848V19.0921C14 19.4615 13.618 19.6951 13.2959 19.5491L13.2324 19.5149L7.7998 16.0774C7.73998 16.0397 7.67304 16.0151 7.60352 16.0052L7.5332 16.0003V14.5003C7.8642 14.5003 8.18921 14.5826 8.47949 14.7386L8.60254 14.8098L12.5 17.2757V6.72391L8.60254 9.19071C8.28271 9.39306 7.91166 9.50021 7.5332 9.50028H5.5V14.5003H7.5332V16.0003H4.5L4.39941 15.9905Z" fill="#F5F5F7"/>
<path d="M19.291 9.64746C19.4851 9.45139 19.7991 9.45134 19.9932 9.64746L20.3623 10.0205C20.5563 10.2168 20.5561 10.535 20.3623 10.7314L19.0752 12.0332L20.3008 13.2734C20.4948 13.4698 20.4947 13.7879 20.3008 13.9844L19.9326 14.3574C19.7385 14.5538 19.4236 14.5538 19.2295 14.3574L18.0039 13.1172L16.7783 14.3574C16.5842 14.5538 16.2703 14.5538 16.0762 14.3574L15.707 13.9844C15.5132 13.788 15.5131 13.4698 15.707 13.2734L16.9316 12.0332L15.6455 10.7314C15.4519 10.5351 15.4517 10.2168 15.6455 10.0205L16.0146 9.64746C16.2088 9.4511 16.5237 9.45107 16.7178 9.64746L18.0039 10.9492L19.291 9.64746Z" fill="#F5F5F7"/>
</svg>
